<svg xmlns="http://www.w3.org/2000/svg" width="1296" viewBox="0 0 1296 1728" height="1728" version="1.0"><path fill="#FFF" d="M-129.6 -172.8H1425.6000000000001V1900.8H-129.6z"/><path fill="#FFF" d="M-129.6 -172.8H1425.6000000000001V1900.8H-129.6z"/><path fill="#231F20" d="M 1108.457031 1137.757812 L 1108.457031 1185.539062 C 1128.664062 1233.480469 1143.238281 1257.5 1152.136719 1257.5 C 1152.136719 1235.207031 1141.53125 1205.941406 1120.277344 1169.613281 C 1114.773438 1149.796875 1112.039062 1139.152344 1112.039062 1137.757812 Z M 1104.328125 1245.683594 L 1104.328125 1297.589844 C 1104.328125 1312.671875 1117.523438 1336.636719 1143.898438 1369.515625 C 1143.898438 1367.828125 1145.292969 1350.527344 1148.027344 1317.609375 C 1142.886719 1317.609375 1133.621094 1298.96875 1120.277344 1261.589844 Z M 1100.238281 1385.425781 C 1100.238281 1398.820312 1098.84375 1405.496094 1096.109375 1405.496094 L 1100.238281 1413.203125 L 1100.238281 1429.128906 L 1096.109375 1437.332031 C 1098.84375 1437.332031 1106.898438 1454.632812 1120.277344 1489.238281 L 1127.96875 1493.367188 L 1136.1875 1433.242188 C 1114.972656 1406.875 1104.328125 1390.910156 1104.328125 1385.425781 Z M 1004.105469 1493.367188 L 1004.105469 1497 C 1013.6875 1526.414062 1021.761719 1541.128906 1028.257812 1541.128906 L 1028.257812 1537.035156 C 1028.257812 1524.375 1020.183594 1509.808594 1004.105469 1493.367188 Z M 952.1875 1497 L 952.1875 1501.09375 C 962.792969 1516.46875 968.097656 1525.917969 968.097656 1529.367188 L 972.246094 1529.367188 L 972.246094 1521.109375 C 961.949219 1505 955.269531 1497 952.1875 1497 Z M 924.457031 362.835938 C 924.457031 379.953125 919.132812 422.449219 908.488281 490.28125 C 914.65625 490.28125 926.660156 506.390625 944.496094 538.574219 L 952.1875 538.574219 L 952.1875 534.464844 C 952.1875 531.75 950.996094 530.375 948.589844 530.375 C 948.589844 527.585938 949.78125 526.261719 952.1875 526.261719 L 948.589844 486.667969 L 948.589844 458.449219 C 948.589844 455.660156 947.214844 454.28125 944.496094 454.28125 C 944.496094 451.917969 945.855469 450.742188 948.589844 450.742188 C 948.589844 409.257812 940.535156 379.953125 924.457031 362.835938 Z M 896.15625 534.464844 C 883.144531 583.457031 871.160156 622.023438 860.167969 650.097656 C 889.640625 680.589844 904.359375 699.269531 904.359375 706.09375 C 908.839844 706.09375 915.5 684.886719 924.457031 642.390625 C 930.917969 642.390625 934.878906 626.261719 936.238281 594.078125 L 936.238281 586.371094 C 912.269531 556.574219 900.269531 539.253906 900.269531 534.464844 Z M 836.53125 1485.128906 C 849.523438 1507.074219 864.148438 1535 880.246094 1568.90625 L 896.15625 1568.90625 L 896.15625 1565.3125 C 891.019531 1565.3125 872.5 1538.613281 840.640625 1485.128906 Z M 848.347656 698.390625 C 832.582031 725.820312 824.710938 743.121094 824.710938 750.277344 C 842.550781 789.34375 858.515625 814.535156 872.5 825.875 C 872.5 817.964844 873.894531 814.003906 876.628906 814.003906 C 873.894531 808.902344 872.5 804.957031 872.5 802.1875 L 896.15625 750.277344 C 868.390625 715.691406 852.476562 698.390625 848.347656 698.390625 Z M 784.628906 1489.238281 L 784.628906 1497 C 795.914062 1536.359375 810.488281 1563.089844 828.308594 1577.109375 L 836.53125 1573.019531 C 813.550781 1530.558594 796.265625 1502.632812 784.628906 1489.238281 Z M 800.558594 798.074219 C 787.214844 824.148438 780.519531 842.808594 780.519531 854.09375 C 783.582031 854.09375 796.980469 873.964844 820.601562 913.707031 L 828.308594 913.707031 C 828.308594 906.53125 836.363281 889.25 852.476562 861.800781 C 830.527344 840.203125 815.808594 818.992188 808.25 798.074219 Z M 744.527344 1517 L 744.527344 1525.21875 C 750.015625 1533.769531 752.75 1540.488281 752.75 1545.257812 L 756.347656 1545.257812 L 756.347656 1541.128906 C 751.207031 1530.210938 748.65625 1522.15625 748.65625 1517 Z M 736.304688 921.980469 C 752.421875 967.835938 768.496094 993.191406 784.628906 998 C 800.375 968.183594 808.25 952.109375 808.25 949.707031 L 804.6875 949.707031 C 801.585938 949.707031 786.832031 931.191406 760.476562 894.183594 L 756.347656 894.183594 C 753.960938 894.183594 747.261719 903.433594 736.304688 921.980469 Z M 700.847656 985.6875 C 712.484375 1011.375 725.664062 1032.734375 740.417969 1049.90625 L 744.527344 1049.90625 C 748.65625 1049.90625 753.960938 1044.605469 760.476562 1033.980469 C 733.753906 1002.441406 720.375 983.742188 720.375 977.925781 L 712.667969 977.925781 Z M 680.789062 1045.777344 L 680.789062 1049.90625 C 688.003906 1075.578125 697.253906 1092.898438 708.558594 1101.796875 C 713.695312 1099.027344 717.625 1097.667969 720.375 1097.667969 C 720.375 1093.574219 707.164062 1076.292969 680.789062 1045.777344 Z M 672.570312 1509.3125 C 672.570312 1512.433594 680.644531 1523 696.757812 1541.128906 C 709.054688 1575.808594 718.320312 1593.054688 724.488281 1593.054688 L 728.597656 1593.054688 L 728.597656 1584.835938 C 709.421875 1537.585938 696.042969 1509.644531 688.5 1501.09375 C 677.890625 1503.128906 672.570312 1505.84375 672.570312 1509.3125 Z M 628.890625 1525.21875 C 651.847656 1569.753906 665.042969 1593.734375 668.476562 1597.144531 L 676.699219 1597.144531 C 654.765625 1549.183594 638.816406 1525.21875 628.890625 1525.21875 Z M 584.679688 1545.257812 C 584.679688 1552.816406 593.929688 1572.667969 612.445312 1604.90625 L 620.648438 1604.90625 C 620.648438 1592.191406 611.398438 1572.320312 592.898438 1545.257812 Z M 516.847656 1529.367188 L 516.847656 1532.925781 C 516.847656 1548.007812 530.207031 1568.082031 556.949219 1593.054688 L 556.949219 1584.835938 C 543.21875 1551.273438 531.21875 1532.726562 520.941406 1529.367188 Z M 464.929688 1545.257812 L 464.929688 1549.386719 C 470.085938 1549.386719 477.957031 1562.542969 488.566406 1588.925781 C 505.707031 1607.769531 515.121094 1617.199219 516.847656 1617.199219 L 520.941406 1617.199219 C 491.464844 1576.429688 476.710938 1552.503906 476.710938 1545.257812 Z M 433.050781 1573.019531 L 433.050781 1584.835938 C 448.136719 1614.285156 460.121094 1629.015625 469.019531 1629.015625 L 469.019531 1620.816406 C 447.457031 1595.109375 436.648438 1579.203125 436.648438 1573.019531 Z M 417.121094 514.464844 C 425.011719 526.757812 428.9375 534.832031 428.9375 538.574219 L 433.050781 538.574219 L 433.050781 534.464844 C 427.929688 522.117188 422.605469 515.492188 417.121094 514.464844 Z M 364.6875 1557.054688 C 364.6875 1576.285156 378.066406 1596.300781 404.769531 1617.199219 L 404.769531 1613.109375 C 390.710938 1575.808594 380.101562 1557.054688 372.925781 1557.054688 Z M 345.160156 490.28125 L 381.148438 554.539062 L 392.96875 554.539062 L 392.96875 550.390625 C 374.800781 510.335938 362.816406 490.28125 356.980469 490.28125 Z M 316.878906 1573.019531 L 316.878906 1581.21875 C 329.910156 1594.632812 341.910156 1617.199219 352.867188 1649.035156 L 361.109375 1644.945312 L 361.109375 1653.144531 L 364.6875 1653.144531 L 372.925781 1649.035156 C 353.050781 1620.960938 337.085938 1595.625 325.117188 1573.019531 Z M 296.855469 502.574219 L 296.855469 506.191406 C 313.628906 541.125 325.632812 563.933594 332.828125 574.554688 C 337.964844 571.839844 342.058594 570.464844 345.160156 570.464844 C 322.53125 525.914062 309.207031 503.273438 305.078125 502.574219 Z M 264.976562 1584.835938 L 264.976562 1593.054688 C 291.71875 1631.804688 305.078125 1654.394531 305.078125 1660.90625 C 310.199219 1660.90625 312.765625 1658.335938 312.765625 1653.144531 L 312.765625 1649.035156 C 293.570312 1606.246094 277.660156 1584.835938 264.976562 1584.835938 Z M 233.117188 510.335938 C 262.242188 549.035156 276.796875 573.035156 276.796875 582.261719 L 285.019531 582.261719 L 285.019531 578.171875 C 269.949219 532.941406 259.324219 510.335938 253.175781 510.335938 Z M 217.167969 1597.144531 L 257.289062 1669.109375 L 264.976562 1669.109375 L 264.976562 1665.015625 C 244.753906 1623.898438 230.199219 1601.292969 221.316406 1597.144531 Z M 193.015625 534.464844 C 199.863281 561.859375 210.488281 587.214844 224.894531 610.539062 L 233.117188 610.539062 C 236.863281 610.539062 240.824219 606.445312 244.917969 598.1875 C 236.035156 573.160156 222.65625 551.933594 204.855469 534.464844 Z M 172.976562 1609 C 189.402344 1649.035156 204.140625 1669.109375 217.167969 1669.109375 L 217.167969 1665.015625 C 206.542969 1642.722656 193.183594 1624.027344 177.070312 1609 Z M 149.339844 554.539062 L 172.976562 606.445312 L 177.070312 606.445312 L 177.070312 598.1875 C 163.726562 574.90625 157.027344 558.980469 157.027344 550.390625 Z M 113.332031 578.171875 L 113.332031 582.261719 C 125.003906 619.582031 135.648438 638.261719 145.210938 638.261719 L 149.339844 630.023438 L 149.339844 626.464844 L 116.929688 578.171875 Z M 480.839844 59.132812 C 480.839844 56.363281 479.5 55.042969 476.710938 55.042969 L 476.710938 59.132812 L 469.019531 55.042969 L 460.78125 55.042969 C 450.191406 55.042969 430.148438 61.683594 400.675781 75.097656 L 392.96875 70.949219 C 375.828125 75.097656 355.785156 84.308594 332.828125 98.730469 C 318.089844 98.730469 288.800781 112.066406 244.917969 138.785156 L 244.917969 142.875 C 242.203125 142.875 240.824219 141.515625 240.824219 138.785156 C 167.820312 168.582031 117.3125 196.507812 89.179688 222.542969 C 57.667969 250.984375 41.71875 267.09375 41.40625 270.855469 C 41.40625 273.222656 42.746094 274.449219 45.5 274.449219 L 41.40625 282.652344 C 52.34375 335.402344 59.042969 362.15625 61.410156 362.835938 C 61.410156 365.203125 60.070312 366.449219 57.320312 366.449219 C 60.070312 383.898438 64.035156 397.257812 69.136719 406.539062 L 64.992188 414.742188 L 89.179688 534.464844 L 97.417969 534.464844 L 125.148438 522.117188 C 165.269531 493.035156 215.792969 469.199219 276.796875 450.742188 C 319.632812 442.464844 347.730469 438.375 361.109375 438.375 C 443.675781 456.210938 484.949219 494.871094 484.949219 554.539062 L 484.949219 566.355469 C 484.949219 569.070312 483.59375 570.464844 480.839844 570.464844 L 484.949219 578.171875 C 484.949219 580.867188 483.59375 582.261719 480.839844 582.261719 L 484.949219 602.300781 C 472.289062 685.527344 449.675781 761.433594 417.121094 829.910156 C 357.492188 951.910156 305.425781 1046.476562 260.867188 1113.613281 C 257.746094 1113.613281 241.835938 1134.859375 213.078125 1177.316406 C 186.335938 1196.214844 157.027344 1221.5 125.148438 1253.410156 C 125.847656 1298.617188 128.601562 1321.222656 133.390625 1321.222656 L 129.277344 1329.425781 C 137.171875 1368.140625 145.0625 1444.066406 152.933594 1557.054688 C 178.628906 1557.054688 236.035156 1543.714844 325.117188 1517 L 652.546875 1461 C 655.28125 1461 656.65625 1462.339844 656.65625 1465.113281 C 683.011719 1462.339844 708.375 1458.433594 732.726562 1453.296875 L 732.726562 1457.40625 C 753.246094 1451.902344 778.445312 1447.808594 808.25 1445.058594 L 808.25 1449.148438 C 832.273438 1446.433594 844.238281 1443.847656 844.238281 1441.480469 C 846.972656 1441.480469 848.347656 1442.671875 848.347656 1445.058594 C 864.460938 1443.367188 872.5 1440.800781 872.5 1437.332031 L 880.246094 1441.480469 L 928.511719 1441.480469 L 936.238281 1437.332031 L 936.238281 1441.480469 L 944.496094 1437.332031 L 976.339844 1437.332031 L 1000.492188 1433.242188 C 1005.648438 1435.992188 1009.59375 1437.332031 1012.347656 1437.332031 C 1039.050781 1437.332031 1053.621094 1423.992188 1056.027344 1397.242188 L 1052.410156 1397.242188 L 1056.027344 1389.589844 L 1056.027344 1381.332031 C 1056.027344 1378.617188 1054.8125 1377.242188 1052.410156 1377.242188 L 1056.027344 1369.515625 L 1056.027344 1321.222656 L 1060.136719 1297.589844 C 1057.402344 1292.453125 1056.027344 1288.308594 1056.027344 1285.222656 C 1058.082031 1264.03125 1060.816406 1253.410156 1064.265625 1253.410156 C 1062.171875 1246.527344 1059.457031 1230.601562 1056.027344 1205.59375 C 1058.761719 1202.878906 1061.476562 1186.914062 1064.265625 1157.796875 C 1061.476562 1157.796875 1060.136719 1156.472656 1060.136719 1153.683594 L 1064.265625 1153.683594 C 1061.476562 1150.988281 1058.761719 1135.007812 1056.027344 1105.886719 L 1060.136719 1105.886719 C 1058.410156 1097.667969 1050.554688 1091.007812 1036.480469 1085.871094 L 1016.4375 1093.574219 L 1016.4375 1089.484375 C 998.617188 1092.199219 981.292969 1096.292969 964.519531 1101.796875 L 964.519531 1097.667969 C 939.855469 1105.558594 883.824219 1116.179688 796.449219 1129.519531 L 796.449219 1125.410156 C 742.289062 1144.253906 674.457031 1153.683594 592.898438 1153.683594 C 592.898438 1158.839844 578.179688 1161.390625 548.707031 1161.390625 C 548.707031 1160.015625 559.316406 1141.539062 580.585938 1105.886719 L 720.375 865.890625 L 792.335938 710.1875 C 808.433594 667.730469 833.8125 586.574219 868.390625 466.648438 L 864.296875 466.648438 L 880.246094 354.632812 L 876.628906 354.632812 L 880.246094 346.375 L 880.246094 338.726562 C 880.246094 335.953125 879.035156 334.558594 876.628906 334.558594 L 880.246094 326.855469 C 880.246094 227.203125 850.917969 159.1875 792.335938 122.855469 L 740.417969 90.96875 L 728.597656 90.96875 C 728.597656 89.296875 719.332031 85.335938 700.847656 79.207031 L 700.847656 82.765625 L 692.628906 79.207031 C 689.855469 79.207031 688.5 80.398438 688.5 82.765625 C 660.402344 69.410156 644.488281 62.746094 640.746094 62.746094 L 640.746094 66.859375 C 616.722656 56.214844 598.039062 50.929688 584.679688 50.929688 L 560.527344 50.929688 C 554.691406 50.929688 549.40625 52.269531 544.578125 55.042969 C 531.21875 52.269531 524.554688 49.535156 524.554688 46.839844 C 515.984375 52.269531 501.429688 56.363281 480.839844 59.132812 Z M 488.566406 -0.976562 C 512.554688 1.757812 524.554688 4.511719 524.554688 7.226562 C 530.023438 4.511719 534.136719 3.132812 536.871094 3.132812 L 564.636719 7.226562 C 567.390625 7.226562 568.765625 5.851562 568.765625 3.132812 C 595.46875 5.851562 608.832031 8.417969 608.832031 10.839844 C 611.234375 10.839844 612.445312 9.648438 612.445312 7.226562 L 632.46875 10.839844 L 636.597656 10.839844 C 639.332031 10.839844 640.746094 9.648438 640.746094 7.226562 C 678.753906 20.289062 713.347656 29.480469 744.527344 34.96875 C 783.929688 58.582031 814.617188 78.675781 836.53125 95.132812 C 841.6875 95.132812 849.523438 102.96875 860.167969 118.765625 C 867.710938 120.488281 887.75 149.738281 920.328125 206.636719 C 923.042969 222.707031 933.667969 250.816406 952.1875 290.871094 C 973.457031 353.257812 986.78125 402.375 992.289062 438.375 L 992.289062 478.464844 C 992.289062 481.183594 990.910156 482.558594 988.15625 482.558594 L 992.289062 490.28125 L 992.289062 506.191406 C 992.289062 552.117188 977.714844 626.8125 948.589844 730.261719 C 950.996094 730.261719 952.1875 731.65625 952.1875 734.371094 C 945.671875 737.488281 933.667969 765.34375 916.199219 818.113281 C 884.320312 891.800781 848.347656 966.292969 808.25 1041.6875 C 795.253906 1062.550781 788.738281 1077.300781 788.738281 1085.871094 C 874.410156 1071.832031 946.1875 1058.457031 1004.105469 1045.777344 C 1012.347656 1045.777344 1016.4375 1044.382812 1016.4375 1041.6875 L 1024.148438 1045.777344 L 1084.269531 1029.871094 C 1102.789062 1069.558594 1138.757812 1129.519531 1192.238281 1209.703125 L 1192.238281 1241.59375 L 1188.109375 1289.390625 L 1192.238281 1289.390625 L 1188.109375 1297.589844 C 1188.109375 1340.746094 1178.859375 1421.957031 1160.339844 1541.128906 L 1160.339844 1588.925781 L 1152.136719 1588.925781 C 1149.402344 1588.925781 1148.027344 1587.605469 1148.027344 1584.835938 L 1127.96875 1597.144531 L 1116.148438 1597.144531 L 1104.328125 1588.925781 C 1101.613281 1588.925781 1100.238281 1590.320312 1100.238281 1593.054688 L 1091.996094 1588.925781 L 1088.398438 1588.925781 C 1082.910156 1589.988281 1080.175781 1592.742188 1080.175781 1597.144531 L 1072.46875 1593.054688 L 1056.027344 1593.054688 L 1048.316406 1597.144531 L 1048.316406 1593.054688 C 1002.398438 1598.925781 971.714844 1604.210938 956.28125 1609 L 956.28125 1604.90625 L 948.589844 1609 L 940.367188 1609 C 903.699219 1609 839.777344 1618.394531 748.65625 1637.292969 C 745.921875 1637.292969 744.527344 1635.917969 744.527344 1633.128906 C 671.171875 1641.035156 617.894531 1648.90625 584.679688 1656.761719 L 576.96875 1653.144531 L 572.839844 1660.90625 L 564.636719 1656.761719 L 544.578125 1665.015625 L 544.578125 1660.90625 C 533.273438 1666.394531 498.679688 1671.675781 440.777344 1676.832031 C 402.050781 1687.457031 324.808594 1703.566406 208.949219 1725.125 C 208.949219 1727.492188 206.378906 1728.742188 201.257812 1728.742188 L 113.332031 1593.054688 L 116.929688 1593.054688 C 95.710938 1389.242188 85.085938 1265.351562 85.085938 1221.5 C 127.589844 1204.765625 186.136719 1142.21875 260.867188 1033.980469 L 377.039062 805.800781 C 416.808594 699.914062 436.648438 632.097656 436.648438 602.300781 L 400.675781 602.300781 C 395.519531 602.976562 392.96875 605.695312 392.96875 610.539062 C 387.828125 607.765625 383.882812 606.445312 381.148438 606.445312 C 239.964844 648.207031 169.398438 678.867188 169.398438 698.390625 C 162.847656 698.390625 156.183594 702.335938 149.339844 710.1875 C 149.339844 704.371094 141.261719 696.351562 125.148438 686.058594 C 125.148438 680.589844 114.558594 664.664062 93.289062 638.261719 C 93.289062 629.382812 82.683594 614.648438 61.410156 594.078125 C 61.410156 592.023438 58.695312 581.382812 53.207031 562.207031 L 57.320312 546.28125 C 46.691406 512.375 28.027344 412.539062 1.289062 246.691406 C 10.90625 219.976562 22.890625 206.636719 37.257812 206.636719 C 120.542969 150.085938 193.898438 110.195312 257.289062 86.875 L 320.988281 50.929688 L 325.117188 43.226562 L 345.160156 46.839844 C 377.039062 31.058594 395.519531 23.132812 400.675781 23.132812 L 400.675781 26.765625 C 411.300781 24.328125 420.679688 20.417969 428.9375 14.949219 C 434.078125 17.664062 438.023438 19.042969 440.777344 19.042969 C 449.675781 13.554688 457.734375 10.839844 464.929688 10.839844 L 480.839844 10.839844 C 480.839844 6.75 483.425781 2.765625 488.566406 -0.976562"/><path fill="#FFF" d="M 480.839844 59.132812 C 480.839844 56.363281 479.5 55.042969 476.710938 55.042969 L 476.710938 59.132812 L 469.019531 55.042969 L 460.78125 55.042969 C 450.191406 55.042969 430.148438 61.683594 400.675781 75.097656 L 392.96875 70.949219 C 375.828125 75.097656 355.785156 84.308594 332.828125 98.730469 C 318.089844 98.730469 288.800781 112.066406 244.917969 138.785156 L 244.917969 142.875 C 242.203125 142.875 240.824219 141.515625 240.824219 138.785156 C 167.820312 168.582031 117.3125 196.507812 89.179688 222.542969 C 57.667969 250.984375 41.71875 267.09375 41.40625 270.855469 C 41.40625 273.222656 42.746094 274.449219 45.5 274.449219 L 41.40625 282.652344 C 52.34375 335.402344 59.042969 362.15625 61.410156 362.835938 C 61.410156 365.203125 60.070312 366.449219 57.320312 366.449219 C 60.070312 383.898438 64.035156 397.257812 69.136719 406.539062 L 64.992188 414.742188 L 89.179688 534.464844 L 97.417969 534.464844 L 125.148438 522.117188 C 165.269531 493.035156 215.792969 469.199219 276.796875 450.742188 C 319.632812 442.464844 347.730469 438.375 361.109375 438.375 C 443.675781 456.210938 484.949219 494.871094 484.949219 554.539062 L 484.949219 566.355469 C 484.949219 569.070312 483.59375 570.464844 480.839844 570.464844 L 484.949219 578.171875 C 484.949219 580.867188 483.59375 582.261719 480.839844 582.261719 L 484.949219 602.300781 C 472.289062 685.527344 449.675781 761.433594 417.121094 829.910156 C 357.492188 951.910156 305.425781 1046.476562 260.867188 1113.613281 C 257.746094 1113.613281 241.835938 1134.859375 213.078125 1177.316406 C 186.335938 1196.214844 157.027344 1221.5 125.148438 1253.410156 C 125.847656 1298.617188 128.601562 1321.222656 133.390625 1321.222656 L 129.277344 1329.425781 C 137.171875 1368.140625 145.0625 1444.066406 152.933594 1557.054688 C 178.628906 1557.054688 236.035156 1543.714844 325.117188 1517 L 652.546875 1461 C 655.28125 1461 656.65625 1462.339844 656.65625 1465.113281 C 683.011719 1462.339844 708.375 1458.433594 732.726562 1453.296875 L 732.726562 1457.40625 C 753.246094 1451.902344 778.445312 1447.808594 808.25 1445.058594 L 808.25 1449.148438 C 832.273438 1446.433594 844.238281 1443.847656 844.238281 1441.480469 C 846.972656 1441.480469 848.347656 1442.671875 848.347656 1445.058594 C 864.460938 1443.367188 872.5 1440.800781 872.5 1437.332031 L 880.246094 1441.480469 L 928.511719 1441.480469 L 936.238281 1437.332031 L 936.238281 1441.480469 L 944.496094 1437.332031 L 976.339844 1437.332031 L 1000.492188 1433.242188 C 1005.648438 1435.992188 1009.59375 1437.332031 1012.347656 1437.332031 C 1039.050781 1437.332031 1053.621094 1423.992188 1056.027344 1397.242188 L 1052.410156 1397.242188 L 1056.027344 1389.589844 L 1056.027344 1381.332031 C 1056.027344 1378.617188 1054.8125 1377.242188 1052.410156 1377.242188 L 1056.027344 1369.515625 L 1056.027344 1321.222656 L 1060.136719 1297.589844 C 1057.402344 1292.453125 1056.027344 1288.308594 1056.027344 1285.222656 C 1058.082031 1264.03125 1060.816406 1253.410156 1064.265625 1253.410156 C 1062.171875 1246.527344 1059.457031 1230.601562 1056.027344 1205.59375 C 1058.761719 1202.878906 1061.476562 1186.914062 1064.265625 1157.796875 C 1061.476562 1157.796875 1060.136719 1156.472656 1060.136719 1153.683594 L 1064.265625 1153.683594 C 1061.476562 1150.988281 1058.761719 1135.007812 1056.027344 1105.886719 L 1060.136719 1105.886719 C 1058.410156 1097.667969 1050.554688 1091.007812 1036.480469 1085.871094 L 1016.4375 1093.574219 L 1016.4375 1089.484375 C 998.617188 1092.199219 981.292969 1096.292969 964.519531 1101.796875 L 964.519531 1097.667969 C 939.855469 1105.558594 883.824219 1116.179688 796.449219 1129.519531 L 796.449219 1125.410156 C 742.289062 1144.253906 674.457031 1153.683594 592.898438 1153.683594 C 592.898438 1158.839844 578.179688 1161.390625 548.707031 1161.390625 C 548.707031 1160.015625 559.316406 1141.539062 580.585938 1105.886719 L 720.375 865.890625 L 792.335938 710.1875 C 808.433594 667.730469 833.8125 586.574219 868.390625 466.648438 L 864.296875 466.648438 L 880.246094 354.632812 L 876.628906 354.632812 L 880.246094 346.375 L 880.246094 338.726562 C 880.246094 335.953125 879.035156 334.558594 876.628906 334.558594 L 880.246094 326.855469 C 880.246094 227.203125 850.917969 159.1875 792.335938 122.855469 L 740.417969 90.96875 L 728.597656 90.96875 C 728.597656 89.296875 719.332031 85.335938 700.847656 79.207031 L 700.847656 82.765625 L 692.628906 79.207031 C 689.855469 79.207031 688.5 80.398438 688.5 82.765625 C 660.402344 69.410156 644.488281 62.746094 640.746094 62.746094 L 640.746094 66.859375 C 616.722656 56.214844 598.039062 50.929688 584.679688 50.929688 L 560.527344 50.929688 C 554.691406 50.929688 549.40625 52.269531 544.578125 55.042969 C 531.21875 52.269531 524.554688 49.535156 524.554688 46.839844 C 515.984375 52.269531 501.429688 56.363281 480.839844 59.132812"/><path fill="#FFF" d="M 172.976562 1609 C 189.402344 1649.035156 204.140625 1669.109375 217.167969 1669.109375 L 217.167969 1665.015625 C 206.542969 1642.722656 193.183594 1624.027344 177.070312 1609 L 172.976562 1609"/><path fill="#FFF" d="M 193.015625 534.464844 C 199.863281 561.859375 210.488281 587.214844 224.894531 610.539062 L 233.117188 610.539062 C 236.863281 610.539062 240.824219 606.445312 244.917969 598.1875 C 236.035156 573.160156 222.65625 551.933594 204.855469 534.464844 L 193.015625 534.464844"/><path fill="#FFF" d="M 217.167969 1597.144531 L 257.289062 1669.109375 L 264.976562 1669.109375 L 264.976562 1665.015625 C 244.753906 1623.898438 230.199219 1601.292969 221.316406 1597.144531 L 217.167969 1597.144531"/><path fill="#FFF" d="M 233.117188 510.335938 C 262.242188 549.035156 276.796875 573.035156 276.796875 582.261719 L 285.019531 582.261719 L 285.019531 578.171875 C 269.949219 532.941406 259.324219 510.335938 253.175781 510.335938 L 233.117188 510.335938"/><path fill="#FFF" d="M 264.976562 1584.835938 L 264.976562 1593.054688 C 291.71875 1631.804688 305.078125 1654.394531 305.078125 1660.90625 C 310.199219 1660.90625 312.765625 1658.335938 312.765625 1653.144531 L 312.765625 1649.035156 C 293.570312 1606.246094 277.660156 1584.835938 264.976562 1584.835938"/><path fill="#FFF" d="M 296.855469 502.574219 L 296.855469 506.191406 C 313.628906 541.125 325.632812 563.933594 332.828125 574.554688 C 337.964844 571.839844 342.058594 570.464844 345.160156 570.464844 C 322.53125 525.914062 309.207031 503.273438 305.078125 502.574219 L 296.855469 502.574219"/><path fill="#FFF" d="M 316.878906 1573.019531 L 316.878906 1581.21875 C 329.910156 1594.632812 341.910156 1617.199219 352.867188 1649.035156 L 361.109375 1644.945312 L 361.109375 1653.144531 L 364.6875 1653.144531 L 372.925781 1649.035156 C 353.050781 1620.960938 337.085938 1595.625 325.117188 1573.019531 L 316.878906 1573.019531"/><path fill="#FFF" d="M 345.160156 490.28125 L 381.148438 554.539062 L 392.96875 554.539062 L 392.96875 550.390625 C 374.800781 510.335938 362.816406 490.28125 356.980469 490.28125 L 345.160156 490.28125"/><path fill="#FFF" d="M 364.6875 1557.054688 C 364.6875 1576.285156 378.066406 1596.300781 404.769531 1617.199219 L 404.769531 1613.109375 C 390.710938 1575.808594 380.101562 1557.054688 372.925781 1557.054688 L 364.6875 1557.054688"/><path fill="#FFF" d="M 417.121094 514.464844 C 425.011719 526.757812 428.9375 534.832031 428.9375 538.574219 L 433.050781 538.574219 L 433.050781 534.464844 C 427.929688 522.117188 422.605469 515.492188 417.121094 514.464844"/><path fill="#FFF" d="M 433.050781 1573.019531 L 433.050781 1584.835938 C 448.136719 1614.285156 460.121094 1629.015625 469.019531 1629.015625 L 469.019531 1620.816406 C 447.457031 1595.109375 436.648438 1579.203125 436.648438 1573.019531 L 433.050781 1573.019531"/><path fill="#FFF" d="M 464.929688 1545.257812 L 464.929688 1549.386719 C 470.085938 1549.386719 477.957031 1562.542969 488.566406 1588.925781 C 505.707031 1607.769531 515.121094 1617.199219 516.847656 1617.199219 L 520.941406 1617.199219 C 491.464844 1576.429688 476.710938 1552.503906 476.710938 1545.257812 L 464.929688 1545.257812"/><path fill="#FFF" d="M 516.847656 1529.367188 L 516.847656 1532.925781 C 516.847656 1548.007812 530.207031 1568.082031 556.949219 1593.054688 L 556.949219 1584.835938 C 543.21875 1551.273438 531.21875 1532.726562 520.941406 1529.367188 L 516.847656 1529.367188"/><path fill="#FFF" d="M 584.679688 1545.257812 C 584.679688 1552.816406 593.929688 1572.667969 612.445312 1604.90625 L 620.648438 1604.90625 C 620.648438 1592.191406 611.398438 1572.320312 592.898438 1545.257812 L 584.679688 1545.257812"/><path fill="#FFF" d="M 628.890625 1525.21875 C 651.847656 1569.753906 665.042969 1593.734375 668.476562 1597.144531 L 676.699219 1597.144531 C 654.765625 1549.183594 638.816406 1525.21875 628.890625 1525.21875"/><path fill="#FFF" d="M 672.570312 1509.3125 C 672.570312 1512.433594 680.644531 1523 696.757812 1541.128906 C 709.054688 1575.808594 718.320312 1593.054688 724.488281 1593.054688 L 728.597656 1593.054688 L 728.597656 1584.835938 C 709.421875 1537.585938 696.042969 1509.644531 688.5 1501.09375 C 677.890625 1503.128906 672.570312 1505.84375 672.570312 1509.3125"/><path fill="#FFF" d="M 680.789062 1045.777344 L 680.789062 1049.90625 C 688.003906 1075.578125 697.253906 1092.898438 708.558594 1101.796875 C 713.695312 1099.027344 717.625 1097.667969 720.375 1097.667969 C 720.375 1093.574219 707.164062 1076.292969 680.789062 1045.777344"/><path fill="#FFF" d="M 700.847656 985.6875 C 712.484375 1011.375 725.664062 1032.734375 740.417969 1049.90625 L 744.527344 1049.90625 C 748.65625 1049.90625 753.960938 1044.605469 760.476562 1033.980469 C 733.753906 1002.441406 720.375 983.742188 720.375 977.925781 L 712.667969 977.925781 L 700.847656 985.6875"/><path fill="#FFF" d="M 736.304688 921.980469 C 752.421875 967.835938 768.496094 993.191406 784.628906 998 C 800.375 968.183594 808.25 952.109375 808.25 949.707031 L 804.6875 949.707031 C 801.585938 949.707031 786.832031 931.191406 760.476562 894.183594 L 756.347656 894.183594 C 753.960938 894.183594 747.261719 903.433594 736.304688 921.980469"/><path fill="#FFF" d="M 744.527344 1517 L 744.527344 1525.21875 C 750.015625 1533.769531 752.75 1540.488281 752.75 1545.257812 L 756.347656 1545.257812 L 756.347656 1541.128906 C 751.207031 1530.210938 748.65625 1522.15625 748.65625 1517 L 744.527344 1517"/><path fill="#FFF" d="M 800.558594 798.074219 C 787.214844 824.148438 780.519531 842.808594 780.519531 854.09375 C 783.582031 854.09375 796.980469 873.964844 820.601562 913.707031 L 828.308594 913.707031 C 828.308594 906.53125 836.363281 889.25 852.476562 861.800781 C 830.527344 840.203125 815.808594 818.992188 808.25 798.074219 L 800.558594 798.074219"/><path fill="#FFF" d="M 784.628906 1489.238281 L 784.628906 1497 C 795.914062 1536.359375 810.488281 1563.089844 828.308594 1577.109375 L 836.53125 1573.019531 C 813.550781 1530.558594 796.265625 1502.632812 784.628906 1489.238281"/><path fill="#FFF" d="M 848.347656 698.390625 C 832.582031 725.820312 824.710938 743.121094 824.710938 750.277344 C 842.550781 789.34375 858.515625 814.535156 872.5 825.875 C 872.5 817.964844 873.894531 814.003906 876.628906 814.003906 C 873.894531 808.902344 872.5 804.957031 872.5 802.1875 L 896.15625 750.277344 C 868.390625 715.691406 852.476562 698.390625 848.347656 698.390625"/><path fill="#FFF" d="M 836.53125 1485.128906 C 849.523438 1507.074219 864.148438 1535 880.246094 1568.90625 L 896.15625 1568.90625 L 896.15625 1565.3125 C 891.019531 1565.3125 872.5 1538.613281 840.640625 1485.128906 L 836.53125 1485.128906"/><path fill="#FFF" d="M 896.15625 534.464844 C 883.144531 583.457031 871.160156 622.023438 860.167969 650.097656 C 889.640625 680.589844 904.359375 699.269531 904.359375 706.09375 C 908.839844 706.09375 915.5 684.886719 924.457031 642.390625 C 930.917969 642.390625 934.878906 626.261719 936.238281 594.078125 L 936.238281 586.371094 C 912.269531 556.574219 900.269531 539.253906 900.269531 534.464844 L 896.15625 534.464844"/><path fill="#FFF" d="M 924.457031 362.835938 C 924.457031 379.953125 919.132812 422.449219 908.488281 490.28125 C 914.65625 490.28125 926.660156 506.390625 944.496094 538.574219 L 952.1875 538.574219 L 952.1875 534.464844 C 952.1875 531.75 950.996094 530.375 948.589844 530.375 C 948.589844 527.585938 949.78125 526.261719 952.1875 526.261719 L 948.589844 486.667969 L 948.589844 458.449219 C 948.589844 455.660156 947.214844 454.28125 944.496094 454.28125 C 944.496094 451.917969 945.855469 450.742188 948.589844 450.742188 C 948.589844 409.257812 940.535156 379.953125 924.457031 362.835938"/><path fill="#FFF" d="M 952.1875 1497 L 952.1875 1501.09375 C 962.792969 1516.46875 968.097656 1525.917969 968.097656 1529.367188 L 972.246094 1529.367188 L 972.246094 1521.109375 C 961.949219 1505 955.269531 1497 952.1875 1497"/><path fill="#FFF" d="M 1004.105469 1493.367188 L 1004.105469 1497 C 1013.6875 1526.414062 1021.761719 1541.128906 1028.257812 1541.128906 L 1028.257812 1537.035156 C 1028.257812 1524.375 1020.183594 1509.808594 1004.105469 1493.367188"/><path fill="#FFF" d="M 1100.238281 1385.425781 C 1100.238281 1398.820312 1098.84375 1405.496094 1096.109375 1405.496094 L 1100.238281 1413.203125 L 1100.238281 1429.128906 L 1096.109375 1437.332031 C 1098.84375 1437.332031 1106.898438 1454.632812 1120.277344 1489.238281 L 1127.96875 1493.367188 L 1136.1875 1433.242188 C 1114.972656 1406.875 1104.328125 1390.910156 1104.328125 1385.425781 L 1100.238281 1385.425781"/><path fill="#FFF" d="M 1104.328125 1245.683594 L 1104.328125 1297.589844 C 1104.328125 1312.671875 1117.523438 1336.636719 1143.898438 1369.515625 C 1143.898438 1367.828125 1145.292969 1350.527344 1148.027344 1317.609375 C 1142.886719 1317.609375 1133.621094 1298.96875 1120.277344 1261.589844 L 1104.328125 1245.683594"/><path fill="#FFF" d="M 1108.457031 1137.757812 L 1108.457031 1185.539062 C 1128.664062 1233.480469 1143.238281 1257.5 1152.136719 1257.5 C 1152.136719 1235.207031 1141.53125 1205.941406 1120.277344 1169.613281 C 1114.773438 1149.796875 1112.039062 1139.152344 1112.039062 1137.757812 L 1108.457031 1137.757812"/></svg>