<svg xmlns="http://www.w3.org/2000/svg" width="1296" viewBox="0 0 1296 1728" height="1728" version="1.0"><defs><clipPath id="a"><path d="M 0 0 L 1143.75 0 L 1143.75 1728 L 0 1728 Z M 0 0"/></clipPath></defs><path fill="#FFF" d="M-129.6 -172.8H1425.6000000000001V1900.8H-129.6z"/><path fill="#FFF" d="M-129.6 -172.8H1425.6000000000001V1900.8H-129.6z"/><g clip-path="url(#a)"><path fill="#231F20" d="M 503.527344 71.523438 C 530.527344 116.367188 562.578125 151.910156 599.660156 178.089844 L 599.660156 183.335938 L 610.074219 178.089844 C 610.964844 185.042969 614.269531 188.558594 619.941406 188.558594 L 640.84375 188.558594 L 650.632812 183.335938 L 650.632812 188.558594 L 661.082031 183.335938 L 670.910156 188.558594 C 674.410156 188.558594 676.136719 186.773438 676.136719 183.335938 L 747.40625 193.085938 L 747.40625 188.558594 C 753.972656 191.589844 758.964844 193.085938 762.480469 193.085938 L 772.914062 188.558594 C 779.480469 191.589844 784.433594 193.085938 787.949219 193.085938 C 791.445312 193.085938 793.191406 191.589844 793.191406 188.558594 L 818.679688 193.085938 L 853.953125 193.085938 C 857.507812 193.085938 859.21875 194.890625 859.21875 198.328125 C 874.039062 191.800781 901.078125 188.558594 940.320312 188.558594 L 945.542969 188.558594 C 953.390625 188.558594 960.113281 190.074219 965.84375 193.085938 C 982.800781 186.636719 994.804688 183.335938 1001.800781 183.335938 C 1002.652344 189.859375 1005.898438 193.085938 1011.589844 193.085938 L 1026.625 193.085938 C 1030.140625 193.085938 1031.867188 191.589844 1031.867188 188.558594 L 1042.320312 193.085938 L 1057.335938 193.085938 C 1057.335938 187.453125 1030.355469 160.417969 976.292969 112.035156 C 976.292969 98.558594 961.027344 91.761719 930.527344 91.761719 C 901.722656 91.761719 850.710938 90.011719 777.476562 86.574219 C 777.476562 83.078125 775.980469 81.332031 772.914062 81.332031 L 772.914062 91.761719 L 767.6875 91.761719 L 767.6875 81.332031 L 757.21875 86.574219 L 752.613281 86.574219 C 735.65625 86.574219 727.148438 83.292969 727.148438 76.726562 C 723.691406 76.726562 721.902344 78.261719 721.902344 81.332031 L 696.417969 76.726562 L 686.625 76.726562 C 683.128906 76.726562 681.382812 78.261719 681.382812 81.332031 C 664.386719 74.746094 633.847656 71.523438 589.851562 71.523438 C 586.355469 71.523438 584.566406 73.289062 584.566406 76.726562 C 567.609375 69.792969 555.816406 66.277344 549.3125 66.277344 C 549.3125 69.792969 547.5625 71.523438 544.066406 71.523438 C 544.066406 68.046875 542.316406 66.277344 538.839844 66.277344 L 538.839844 71.523438 C 535.34375 71.523438 533.597656 69.792969 533.597656 66.277344 Z M 355.738281 965.859375 L 401.523438 1046.945312 L 411.996094 1046.945312 L 411.996094 1042.34375 C 411.996094 1031.894531 398.476562 1004.625 371.433594 960.597656 C 364.460938 964.113281 359.214844 965.859375 355.738281 965.859375 Z M 320.464844 1006.433594 L 320.464844 1011.617188 L 396.320312 1164.003906 L 396.320312 1169.1875 L 401.523438 1169.1875 L 406.75 1143.707031 L 406.75 1118.1875 C 355.738281 1053.21875 330.234375 1016.007812 330.234375 1006.433594 Z M 309.972656 1097.949219 C 309.972656 1111.445312 308.246094 1118.1875 304.75 1118.1875 L 309.972656 1154.15625 L 309.972656 1235.222656 L 304.75 1265.96875 C 308.246094 1272.53125 309.972656 1277.503906 309.972656 1281 C 299.949219 1321.941406 293.191406 1399.957031 289.675781 1515.050781 C 333.710938 1580.816406 355.738281 1616.355469 355.738281 1621.601562 L 360.984375 1621.601562 L 381.246094 1469.273438 L 376 1469.273438 C 383.011719 1383.390625 391.519531 1302.089844 401.523438 1225.453125 C 347.464844 1153.066406 320.464844 1110.574219 320.464844 1097.949219 Z M 203.386719 711.589844 C 199.910156 711.589844 198.144531 713.277344 198.144531 716.773438 L 203.386719 716.773438 C 195.539062 786.984375 187.070312 846.242188 177.882812 894.621094 L 188.371094 899.828125 L 213.839844 899.828125 L 249.191406 894.621094 L 249.191406 899.828125 L 259.003906 894.621094 L 264.207031 894.621094 C 267.722656 894.621094 269.414062 896.367188 269.414062 899.828125 L 279.902344 894.621094 C 282.953125 894.621094 284.46875 896.367188 284.46875 899.828125 L 294.917969 894.621094 L 376 894.621094 C 385.1875 894.621094 395.367188 891.339844 406.75 884.773438 L 432.253906 894.621094 L 462.324219 889.378906 L 467.589844 889.378906 C 472.796875 889.378906 478.039062 896.367188 483.265625 910.3125 C 472.796875 973.027344 462.539062 1093.34375 452.515625 1271.132812 C 446.863281 1271.132812 441.851562 1304.925781 437.460938 1372.515625 L 442.066406 1372.515625 C 431.167969 1498.039062 419.394531 1599.578125 406.75 1677.207031 L 416.558594 1677.207031 L 467.589844 1672.621094 L 467.589844 1677.207031 L 478.039062 1672.621094 L 493.074219 1672.621094 C 496.550781 1672.621094 498.28125 1674.15625 498.28125 1677.207031 L 508.089844 1672.621094 L 518.542969 1677.207031 C 535.558594 1677.207031 544.066406 1673.921875 544.066406 1667.359375 L 579.363281 1672.621094 L 635.636719 1672.621094 C 639.09375 1672.621094 640.84375 1670.855469 640.84375 1667.359375 C 643.871094 1667.359375 645.445312 1669.125 645.445312 1672.621094 C 682.023438 1665.609375 721.066406 1662.113281 762.480469 1662.113281 L 772.914062 1662.113281 C 789.929688 1662.113281 798.417969 1658.832031 798.417969 1652.324219 L 808.246094 1656.929688 L 833.714844 1656.929688 C 863.394531 1656.929688 880.351562 1634.886719 884.761719 1590.894531 L 879.519531 1590.894531 C 886.492188 1572.113281 904.984375 1480.597656 935.09375 1316.269531 L 930.527344 1316.269531 C 957.511719 1180.296875 971.050781 1105.777344 971.050781 1092.703125 L 965.84375 1092.703125 C 982.800781 1022.125 991.308594 971.335938 991.308594 940.320312 L 986.105469 940.320312 C 999.585938 877.628906 1014.871094 784.578125 1031.867188 661.230469 L 1026.625 661.230469 C 1030.140625 640.71875 1033.597656 630.523438 1037.074219 630.523438 C 1037.074219 627.007812 1035.386719 625.257812 1031.867188 625.257812 C 1052.34375 504.496094 1067.609375 382.523438 1077.632812 259.15625 C 1046.242188 249.117188 1025.945312 244.085938 1016.796875 244.085938 C 1013.296875 244.085938 1008.304688 245.832031 1001.800781 249.328125 L 920.039062 238.898438 C 893 242.339844 879.519531 245.832031 879.519531 249.328125 L 853.953125 244.085938 L 752.613281 244.085938 C 749.195312 244.085938 747.40625 242.339844 747.40625 238.898438 C 743.949219 238.898438 742.183594 240.648438 742.183594 244.085938 L 716.675781 238.898438 L 706.90625 238.898438 C 679.421875 238.898438 647.175781 237.347656 610.074219 234.296875 C 577.847656 241.25 538.839844 266.558594 493.074219 310.140625 C 450.746094 358.074219 418.523438 385.28125 396.320312 391.867188 C 396.320312 397.050781 371.027344 422.378906 320.464844 467.710938 C 283.382812 506.066406 249.40625 543.300781 218.441406 579.5 C 208.417969 611.742188 203.386719 655.769531 203.386719 711.589844 Z M 437.460938 91.761719 C 437.460938 102.210938 423.746094 115.765625 396.320312 132.332031 C 392.839844 146.277344 359.042969 180.285156 294.917969 234.296875 C 283.59375 240.863281 268.347656 257.585938 249.191406 284.640625 C 167.644531 350.050781 126.875 395.730469 126.875 421.933594 L 126.875 442.207031 L 203.386719 518.710938 C 325.027344 389.671875 391.054688 325.152344 401.523438 325.152344 C 404.128906 324.726562 426.175781 302.757812 467.589844 259.15625 C 467.589844 262.671875 469.316406 264.382812 472.796875 264.382812 C 488.472656 237.347656 508.730469 215.320312 533.597656 198.328125 L 533.597656 193.085938 C 481.285156 125.554688 452.515625 91.761719 447.269531 91.761719 Z M 66.09375 533.742188 L 71.296875 544.171875 C 67.820312 549.804688 66.09375 556.601562 66.09375 564.46875 C 66.09375 567.90625 67.820312 569.65625 71.296875 569.65625 C 68.714844 575.773438 65.199219 599.351562 60.808594 640.292969 C 60.808594 647.246094 64.34375 659.285156 71.296875 676.28125 C 69.140625 703.257812 65.625 716.773438 60.808594 716.773438 C 60.808594 766.902344 79.613281 807.628906 117.101562 839.015625 C 123.628906 847.347656 126.875 854.066406 126.875 859.3125 L 132.117188 859.3125 L 152.378906 696.558594 C 152.378906 689.566406 150.648438 686.050781 147.171875 686.050781 L 152.378906 650.742188 L 152.378906 559.226562 C 152.378906 555.769531 154.164062 553.960938 157.625 553.960938 C 152.378906 538.714844 130.371094 514.980469 91.597656 482.722656 C 81.535156 482.722656 73.027344 499.714844 66.09375 533.742188 Z M 452.515625 0.246094 L 523.785156 15.277344 L 564.308594 15.277344 C 586.140625 15.277344 609.859375 18.792969 635.636719 25.726562 L 645.445312 20.460938 C 675.921875 24.425781 694.667969 27.960938 701.640625 31.027344 C 705.121094 31.027344 706.90625 29.222656 706.90625 25.726562 L 793.191406 35.554688 C 796.671875 35.554688 798.417969 34.019531 798.417969 31.027344 C 828.488281 34.914062 847.019531 38.195312 853.953125 40.816406 L 879.519531 35.554688 C 967.53125 45.148438 1011.589844 58.839844 1011.589844 76.726562 C 1043.875 111.183594 1070.855469 136.429688 1092.648438 152.570312 C 1092.648438 159.117188 1109.648438 177.875 1143.699219 208.777344 L 1143.699219 223.867188 L 1138.414062 234.296875 L 1143.699219 234.296875 L 1138.414062 244.085938 L 1143.699219 254.574219 C 1133.636719 254.574219 1125.128906 320.609375 1118.15625 452.65625 C 1115.53125 452.65625 1112.269531 459.378906 1108.347656 472.953125 L 1113.609375 482.722656 L 1113.609375 487.964844 C 1104.867188 487.964844 1092.863281 576.21875 1077.632812 752.746094 L 1022.058594 1103.152344 C 1022.058594 1106.648438 1023.574219 1108.398438 1026.625 1108.398438 C 996.125 1259.617188 980.820312 1337.402344 980.820312 1341.789062 L 986.105469 1341.789062 C 966.019531 1425.945312 952.515625 1500.445312 945.542969 1565.355469 C 942.027344 1565.355469 937.035156 1577.359375 930.527344 1601.324219 L 935.09375 1601.324219 C 928.953125 1675.847656 903.664062 1713.117188 859.21875 1713.117188 C 839.617188 1713.117188 827.613281 1714.882812 823.261719 1718.378906 L 823.261719 1713.117188 L 813.453125 1718.378906 L 787.949219 1718.378906 C 784.433594 1718.378906 782.742188 1716.613281 782.742188 1713.117188 C 774.449219 1716.613281 757.664062 1719.835938 732.351562 1722.90625 C 728.894531 1722.90625 727.148438 1721.371094 727.148438 1718.378906 L 701.640625 1722.90625 L 650.632812 1722.90625 L 640.84375 1728.167969 C 640.84375 1724.652344 639.09375 1722.90625 635.636719 1722.90625 L 635.636719 1728.167969 C 615.121094 1721.644531 584.566406 1718.378906 544.066406 1718.378906 L 508.089844 1722.90625 L 508.089844 1718.378906 C 505.058594 1718.378906 503.527344 1719.835938 503.527344 1722.90625 L 457.761719 1718.378906 C 418.96875 1724.867188 391.695312 1728.167969 376 1728.167969 C 331.964844 1671.515625 309.972656 1639.195312 309.972656 1631.390625 C 305.621094 1631.390625 280.332031 1602.625 234.101562 1545.117188 C 234.992188 1484.113281 238.277344 1453.601562 243.910156 1453.601562 C 243.910156 1450.53125 242.179688 1449.019531 238.703125 1449.019531 C 242.179688 1389.742188 247.425781 1342.21875 254.398438 1306.480469 L 249.191406 1306.480469 L 254.398438 1296.03125 L 254.398438 1281 C 254.398438 1158.097656 261.160156 1071.769531 274.660156 1022.125 C 274.660156 1018.609375 272.910156 1016.824219 269.414062 1016.824219 L 274.660156 991.34375 L 274.660156 950.828125 L 218.441406 950.828125 C 211.003906 950.828125 204.242188 952.34375 198.144531 955.429688 C 142.800781 955.429688 102.261719 923.386719 76.542969 859.3125 C 68.714844 859.3125 46.667969 833.773438 10.476562 782.808594 C 10.476562 769.3125 7 762.53125 0.0664062 762.53125 C 7 752.53125 12.03125 734.003906 15.082031 706.949219 L 10.476562 706.949219 L 15.082031 696.558594 C 15.082031 693.0625 13.546875 688.011719 10.476562 681.523438 C 13.546875 637.457031 16.808594 615.433594 20.328125 615.433594 L 15.082031 604.984375 L 15.082031 599.71875 C 15.082031 596.730469 16.808594 595.195312 20.328125 595.195312 C 20.328125 591.699219 18.539062 589.929688 15.082031 589.929688 L 20.328125 564.46875 L 20.328125 518.710938 C 20.328125 444.1875 32.292969 406.898438 56.242188 406.898438 C 68.460938 385.515625 85.246094 366.773438 106.613281 350.691406 C 106.613281 346.324219 142.355469 310.839844 213.839844 244.085938 C 342.453125 116.851562 406.75 50.820312 406.75 46.003906 C 413.316406 46.003906 421.804688 35.785156 432.253906 15.277344 L 452.515625 0.246094"/></g><path fill="#FFF" d="M 66.09375 533.742188 L 71.296875 544.171875 C 67.820312 549.804688 66.09375 556.601562 66.09375 564.46875 C 66.09375 567.90625 67.820312 569.65625 71.296875 569.65625 C 68.714844 575.773438 65.199219 599.351562 60.808594 640.292969 C 60.808594 647.246094 64.34375 659.285156 71.296875 676.28125 C 69.140625 703.257812 65.625 716.773438 60.808594 716.773438 C 60.808594 766.902344 79.613281 807.628906 117.101562 839.015625 C 123.628906 847.347656 126.875 854.066406 126.875 859.3125 L 132.117188 859.3125 L 152.378906 696.558594 C 152.378906 689.566406 150.648438 686.050781 147.171875 686.050781 L 152.378906 650.742188 L 152.378906 559.226562 C 152.378906 555.769531 154.164062 553.960938 157.625 553.960938 C 152.378906 538.714844 130.371094 514.980469 91.597656 482.722656 C 81.535156 482.722656 73.027344 499.714844 66.09375 533.742188"/><path fill="#FFF" d="M 437.460938 91.761719 C 437.460938 102.210938 423.746094 115.765625 396.320312 132.332031 C 392.839844 146.277344 359.042969 180.285156 294.917969 234.296875 C 283.59375 240.863281 268.347656 257.585938 249.191406 284.640625 C 167.644531 350.050781 126.875 395.730469 126.875 421.933594 L 126.875 442.207031 L 203.386719 518.710938 C 325.027344 389.671875 391.054688 325.152344 401.523438 325.152344 C 404.128906 324.726562 426.175781 302.757812 467.589844 259.15625 C 467.589844 262.671875 469.316406 264.382812 472.796875 264.382812 C 488.472656 237.347656 508.730469 215.320312 533.597656 198.328125 L 533.597656 193.085938 C 481.285156 125.554688 452.515625 91.761719 447.269531 91.761719 L 437.460938 91.761719"/><path fill="#FFF" d="M 203.386719 711.589844 C 199.910156 711.589844 198.144531 713.277344 198.144531 716.773438 L 203.386719 716.773438 C 195.539062 786.984375 187.070312 846.242188 177.882812 894.621094 L 188.371094 899.828125 L 213.839844 899.828125 L 249.191406 894.621094 L 249.191406 899.828125 L 259.003906 894.621094 L 264.207031 894.621094 C 267.722656 894.621094 269.414062 896.367188 269.414062 899.828125 L 279.902344 894.621094 C 282.953125 894.621094 284.46875 896.367188 284.46875 899.828125 L 294.917969 894.621094 L 376 894.621094 C 385.1875 894.621094 395.367188 891.339844 406.75 884.773438 L 432.253906 894.621094 L 462.324219 889.378906 L 467.589844 889.378906 C 472.796875 889.378906 478.039062 896.367188 483.265625 910.3125 C 472.796875 973.027344 462.539062 1093.34375 452.515625 1271.132812 C 446.863281 1271.132812 441.851562 1304.925781 437.460938 1372.515625 L 442.066406 1372.515625 C 431.167969 1498.039062 419.394531 1599.578125 406.75 1677.207031 L 416.558594 1677.207031 L 467.589844 1672.621094 L 467.589844 1677.207031 L 478.039062 1672.621094 L 493.074219 1672.621094 C 496.550781 1672.621094 498.28125 1674.15625 498.28125 1677.207031 L 508.089844 1672.621094 L 518.542969 1677.207031 C 535.558594 1677.207031 544.066406 1673.921875 544.066406 1667.359375 L 579.363281 1672.621094 L 635.636719 1672.621094 C 639.09375 1672.621094 640.84375 1670.855469 640.84375 1667.359375 C 643.871094 1667.359375 645.445312 1669.125 645.445312 1672.621094 C 682.023438 1665.609375 721.066406 1662.113281 762.480469 1662.113281 L 772.914062 1662.113281 C 789.929688 1662.113281 798.417969 1658.832031 798.417969 1652.324219 L 808.246094 1656.929688 L 833.714844 1656.929688 C 863.394531 1656.929688 880.351562 1634.886719 884.761719 1590.894531 L 879.519531 1590.894531 C 886.492188 1572.113281 904.984375 1480.597656 935.09375 1316.269531 L 930.527344 1316.269531 C 957.511719 1180.296875 971.050781 1105.777344 971.050781 1092.703125 L 965.84375 1092.703125 C 982.800781 1022.125 991.308594 971.335938 991.308594 940.320312 L 986.105469 940.320312 C 999.585938 877.628906 1014.871094 784.578125 1031.867188 661.230469 L 1026.625 661.230469 C 1030.140625 640.71875 1033.597656 630.523438 1037.074219 630.523438 C 1037.074219 627.007812 1035.386719 625.257812 1031.867188 625.257812 C 1052.34375 504.496094 1067.609375 382.523438 1077.632812 259.15625 C 1046.242188 249.117188 1025.945312 244.085938 1016.796875 244.085938 C 1013.296875 244.085938 1008.304688 245.832031 1001.800781 249.328125 L 920.039062 238.898438 C 893 242.339844 879.519531 245.832031 879.519531 249.328125 L 853.953125 244.085938 L 752.613281 244.085938 C 749.195312 244.085938 747.40625 242.339844 747.40625 238.898438 C 743.949219 238.898438 742.183594 240.648438 742.183594 244.085938 L 716.675781 238.898438 L 706.90625 238.898438 C 679.421875 238.898438 647.175781 237.347656 610.074219 234.296875 C 577.847656 241.25 538.839844 266.558594 493.074219 310.140625 C 450.746094 358.074219 418.523438 385.28125 396.320312 391.867188 C 396.320312 397.050781 371.027344 422.378906 320.464844 467.710938 C 283.382812 506.066406 249.40625 543.300781 218.441406 579.5 C 208.417969 611.742188 203.386719 655.769531 203.386719 711.589844"/><path fill="#FFF" d="M 309.972656 1097.949219 C 309.972656 1111.445312 308.246094 1118.1875 304.75 1118.1875 L 309.972656 1154.15625 L 309.972656 1235.222656 L 304.75 1265.96875 C 308.246094 1272.53125 309.972656 1277.503906 309.972656 1281 C 299.949219 1321.941406 293.191406 1399.957031 289.675781 1515.050781 C 333.710938 1580.816406 355.738281 1616.355469 355.738281 1621.601562 L 360.984375 1621.601562 L 381.246094 1469.273438 L 376 1469.273438 C 383.011719 1383.390625 391.519531 1302.089844 401.523438 1225.453125 C 347.464844 1153.066406 320.464844 1110.574219 320.464844 1097.949219 L 309.972656 1097.949219"/><path fill="#FFF" d="M 320.464844 1006.433594 L 320.464844 1011.617188 L 396.320312 1164.003906 L 396.320312 1169.1875 L 401.523438 1169.1875 L 406.75 1143.707031 L 406.75 1118.1875 C 355.738281 1053.21875 330.234375 1016.007812 330.234375 1006.433594 L 320.464844 1006.433594"/><path fill="#FFF" d="M 355.738281 965.859375 L 401.523438 1046.945312 L 411.996094 1046.945312 L 411.996094 1042.34375 C 411.996094 1031.894531 398.476562 1004.625 371.433594 960.597656 C 364.460938 964.113281 359.214844 965.859375 355.738281 965.859375"/><path fill="#FFF" d="M 503.527344 71.523438 C 530.527344 116.367188 562.578125 151.910156 599.660156 178.089844 L 599.660156 183.335938 L 610.074219 178.089844 C 610.964844 185.042969 614.269531 188.558594 619.941406 188.558594 L 640.84375 188.558594 L 650.632812 183.335938 L 650.632812 188.558594 L 661.082031 183.335938 L 670.910156 188.558594 C 674.410156 188.558594 676.136719 186.773438 676.136719 183.335938 L 747.40625 193.085938 L 747.40625 188.558594 C 753.972656 191.589844 758.964844 193.085938 762.480469 193.085938 L 772.914062 188.558594 C 779.480469 191.589844 784.433594 193.085938 787.949219 193.085938 C 791.445312 193.085938 793.191406 191.589844 793.191406 188.558594 L 818.679688 193.085938 L 853.953125 193.085938 C 857.507812 193.085938 859.21875 194.890625 859.21875 198.328125 C 874.039062 191.800781 901.078125 188.558594 940.320312 188.558594 L 945.542969 188.558594 C 953.390625 188.558594 960.113281 190.074219 965.84375 193.085938 C 982.800781 186.636719 994.804688 183.335938 1001.800781 183.335938 C 1002.652344 189.859375 1005.898438 193.085938 1011.589844 193.085938 L 1026.625 193.085938 C 1030.140625 193.085938 1031.867188 191.589844 1031.867188 188.558594 L 1042.320312 193.085938 L 1057.335938 193.085938 C 1057.335938 187.453125 1030.355469 160.417969 976.292969 112.035156 C 976.292969 98.558594 961.027344 91.761719 930.527344 91.761719 C 901.722656 91.761719 850.710938 90.011719 777.476562 86.574219 C 777.476562 83.078125 775.980469 81.332031 772.914062 81.332031 L 772.914062 91.761719 L 767.6875 91.761719 L 767.6875 81.332031 L 757.21875 86.574219 L 752.613281 86.574219 C 735.65625 86.574219 727.148438 83.292969 727.148438 76.726562 C 723.691406 76.726562 721.902344 78.261719 721.902344 81.332031 L 696.417969 76.726562 L 686.625 76.726562 C 683.128906 76.726562 681.382812 78.261719 681.382812 81.332031 C 664.386719 74.746094 633.847656 71.523438 589.851562 71.523438 C 586.355469 71.523438 584.566406 73.289062 584.566406 76.726562 C 567.609375 69.792969 555.816406 66.277344 549.3125 66.277344 C 549.3125 69.792969 547.5625 71.523438 544.066406 71.523438 C 544.066406 68.046875 542.316406 66.277344 538.839844 66.277344 L 538.839844 71.523438 C 535.34375 71.523438 533.597656 69.792969 533.597656 66.277344 L 503.527344 71.523438"/></svg>