<svg xmlns="http://www.w3.org/2000/svg" width="1296" viewBox="0 0 1296 1728" height="1728" version="1.0"><path fill="#FFF" d="M-129.6 -172.8H1425.6000000000001V1900.8H-129.6z"/><path fill="#FFF" d="M-129.6 -172.8H1425.6000000000001V1900.8H-129.6z"/><path fill="#231F20" d="M 540.691406 1070.871094 C 506.957031 1099.933594 490.101562 1115.335938 490.101562 1117.15625 L 490.101562 1129.5 C 495.855469 1129.5 520.984375 1114.234375 565.46875 1083.757812 C 562.585938 1075.171875 554.347656 1070.871094 540.691406 1070.871094 Z M 469.117188 485.175781 C 469.117188 482.253906 467.839844 480.855469 465.324219 480.855469 L 465.324219 493.761719 L 469.117188 493.761719 C 530.09375 462.164062 560.800781 442.648438 561.183594 435.097656 L 561.183594 418.363281 L 557.390625 418.363281 C 545.515625 421.632812 533.015625 431.335938 519.722656 447.441406 C 506.085938 448.191406 489.191406 460.746094 469.117188 485.175781 Z M 465.324219 551.898438 L 456.703125 548.140625 C 451.683594 557.128906 447.574219 572.375 444.339844 593.882812 L 448.640625 593.882812 C 468.015625 580.941406 481.832031 566.972656 490.101562 551.898438 C 517.015625 534.308594 536.582031 509.183594 548.804688 476.519531 C 493.144531 509.53125 465.324219 534.695312 465.324219 551.898438 Z M 435.734375 1251.183594 L 435.734375 1254.941406 C 447.921875 1252.074219 477.371094 1239.539062 524.007812 1217.277344 C 562.777344 1178.898438 582.152344 1146.898438 582.152344 1121.441406 L 574.089844 1117.15625 C 525.667969 1147.667969 496.398438 1162.878906 486.324219 1162.878906 C 471.617188 1198.742188 454.726562 1228.222656 435.734375 1251.183594 Z M 410.972656 1661.359375 C 419.925781 1655.660156 426.765625 1652.773438 431.433594 1652.773438 L 431.433594 1657.058594 C 449.007812 1646.652344 468.558594 1638.242188 490.101562 1631.757812 L 490.101562 1627.488281 C 450.265625 1627.488281 423.878906 1637.335938 410.972656 1657.058594 Z M 326.984375 1673.773438 L 331.269531 1673.773438 C 367.539062 1661.570312 385.652344 1649.015625 385.652344 1636.109375 L 385.652344 1631.757812 C 349.035156 1652.597656 329.484375 1666.570312 326.984375 1673.773438 Z M 276.902344 1623.695312 C 276.902344 1629.082031 264.367188 1641.652344 239.238281 1661.359375 L 239.238281 1665.171875 C 257.894531 1663.371094 278.6875 1652.25 301.683594 1631.757812 L 301.683594 1627.488281 C 289.09375 1627.488281 280.855469 1626.195312 276.902344 1623.695312 Z M 180.535156 849.066406 L 184.855469 857.667969 L 184.855469 878.6875 C 185.921875 934.273438 188.628906 962.09375 192.933594 962.09375 L 189.15625 970.695312 L 189.15625 1020.792969 C 189.15625 1048.402344 187.703125 1081.976562 184.855469 1121.441406 C 187.703125 1135.464844 190.398438 1142.457031 192.933594 1142.457031 C 243.15625 1113.027344 268.316406 1092.027344 268.316406 1079.472656 C 271.167969 1061.167969 272.601562 1043.050781 272.601562 1025.078125 L 272.601562 870.03125 C 272.601562 867.183594 271.167969 865.730469 268.316406 865.730469 L 272.601562 857.667969 C 272.601562 854.820312 271.167969 853.386719 268.316406 853.386719 L 272.601562 845.308594 L 272.601562 840.953125 L 268.316406 832.351562 L 272.601562 832.351562 C 266.847656 815.128906 263.980469 803.988281 263.980469 798.988281 C 266.847656 798.988281 268.316406 797.570312 268.316406 794.6875 C 265.433594 794.6875 263.980469 793.289062 263.980469 790.367188 C 266.847656 790.367188 268.316406 789.125 268.316406 786.625 L 263.980469 786.625 Z M 163.871094 271.414062 C 166.703125 277.183594 168.152344 281.46875 168.152344 284.335938 L 163.871094 284.335938 C 173.207031 356.882812 181.601562 407.066406 189.15625 435.097656 C 189.15625 437.597656 187.703125 438.835938 184.855469 438.835938 L 197.234375 501.839844 C 270.820312 451.585938 311.371094 426.476562 318.90625 426.476562 C 362.675781 398.464844 389.0625 384.441406 398.050781 384.441406 L 448.640625 364.050781 L 448.640625 367.828125 C 470.183594 359.539062 496.554688 355.433594 527.769531 355.433594 C 583.796875 366.535156 611.757812 383.25 611.757812 405.476562 C 608.90625 410.859375 607.453125 415.164062 607.453125 418.363281 L 611.757812 438.835938 L 607.453125 438.835938 C 607.453125 441.6875 608.90625 443.140625 611.757812 443.140625 C 610.339844 477.953125 583.796875 526.753906 532.070312 589.582031 C 518.097656 589.582031 497.097656 606.453125 469.117188 640.167969 C 460.113281 640.167969 444.863281 651.289062 423.320312 673.546875 C 347.953125 713.378906 310.285156 751.09375 310.285156 786.625 L 314.585938 794.6875 C 314.585938 797.570312 313.152344 798.988281 310.285156 798.988281 C 316.023438 826.25 318.90625 862.511719 318.90625 907.765625 L 322.667969 907.765625 L 318.90625 916.351562 L 318.90625 962.09375 L 322.667969 970.695312 L 318.90625 970.695312 C 321.425781 976.101562 322.667969 980.207031 322.667969 983.109375 C 320.148438 1012.171875 318.90625 1028.886719 318.90625 1033.191406 C 321.425781 1038.539062 322.667969 1042.84375 322.667969 1046.113281 L 326.984375 1046.113281 L 402.351562 1029.378906 C 405.203125 1029.378906 406.671875 1030.636719 406.671875 1033.191406 C 445.789062 1024.183594 466.601562 1018.640625 469.117188 1016.472656 C 480.605469 1018.640625 486.324219 1021.476562 486.324219 1025.078125 L 494.402344 1020.792969 L 524.007812 1025.078125 C 525.074219 1025.078125 530.652344 1023.644531 540.691406 1020.792969 C 565.820312 1023.644531 593.625 1039.101562 624.15625 1067.078125 C 624.15625 1072.445312 621.445312 1075.171875 616.058594 1075.171875 C 621.445312 1089.878906 625.570312 1107.976562 628.472656 1129.5 C 614.484375 1185.488281 592.03125 1223.171875 561.183594 1242.578125 C 513.0625 1269.488281 475.554688 1287.605469 448.640625 1296.976562 C 429.632812 1299.828125 419.769531 1304.128906 419.035156 1309.882812 C 416.167969 1309.882812 414.714844 1308.414062 414.714844 1305.527344 C 380.617188 1308.414062 359.789062 1312.574219 352.273438 1317.925781 L 352.273438 1313.640625 C 342.234375 1319.375 329.679688 1322.226562 314.585938 1322.226562 C 308.484375 1317.925781 290.351562 1313.832031 260.222656 1309.882812 L 260.222656 1313.640625 C 235.09375 1311.140625 222.519531 1308.414062 222.519531 1305.527344 C 204.597656 1305.527344 193.441406 1323.679688 189.15625 1359.925781 L 192.933594 1368.019531 C 190.398438 1372.65625 184.855469 1395.089844 176.234375 1435.253906 L 180.535156 1435.253906 C 174.78125 1452.527344 171.929688 1463.648438 171.929688 1468.6875 L 176.234375 1468.6875 L 163.871094 1527.367188 C 179.644531 1555.328125 206.1875 1569.351562 243.523438 1569.351562 C 248.191406 1569.351562 256.445312 1571.992188 268.316406 1577.410156 L 268.316406 1573.09375 L 322.667969 1586.066406 L 326.984375 1586.066406 C 329.855469 1586.066406 331.269531 1584.597656 331.269531 1581.710938 L 356.574219 1589.753906 C 361.242188 1587.324219 366.785156 1586.066406 373.253906 1586.066406 C 375.792969 1586.066406 377.03125 1587.324219 377.03125 1589.753906 L 385.652344 1586.066406 L 398.050781 1586.066406 C 400.917969 1586.066406 402.351562 1587.324219 402.351562 1589.753906 C 446.839844 1583.304688 469.117188 1579.210938 469.117188 1577.410156 C 471.96875 1577.410156 473.402344 1578.792969 473.402344 1581.710938 C 535.515625 1570.589844 588.621094 1558.035156 632.757812 1544.03125 C 647.480469 1544.03125 671.175781 1532.945312 703.84375 1510.667969 C 716.011719 1510.667969 764.835938 1481.242188 850.257812 1422.347656 C 928.160156 1348.804688 975.496094 1294.40625 992.390625 1259.242188 C 1029.722656 1219.410156 1056.269531 1149.765625 1072.058594 1050.394531 C 1050.550781 966.394531 1033.851562 924.429688 1021.996094 924.429688 C 1021.996094 921.910156 1023.253906 920.671875 1025.789062 920.671875 C 986.636719 844.207031 925.257812 789.667969 841.671875 757.003906 L 841.671875 761.289062 C 827.648438 753.054688 816.507812 748.945312 808.289062 748.945312 L 803.953125 748.945312 L 783.492188 753.261719 C 783.492188 746.8125 763.945312 736.878906 724.808594 723.625 L 720.523438 685.945312 C 733.042969 678.390625 763.734375 640.707031 812.558594 572.882812 C 812.558594 566.761719 830.707031 537.542969 866.941406 485.175781 C 900.339844 428.066406 917.023438 377.847656 917.023438 334.414062 L 917.023438 322 C 917.023438 319.148438 915.761719 317.699219 913.246094 317.699219 L 917.023438 309.148438 C 917.023438 269.628906 894.761719 223.695312 850.257812 171.308594 C 776.675781 119.972656 708.320312 85.191406 645.140625 66.882812 L 645.140625 70.625 C 635.800781 65.277344 627.371094 62.582031 619.851562 62.582031 L 607.453125 62.582031 L 607.453125 53.980469 L 598.851562 53.980469 C 584.109375 53.980469 571.554688 52.527344 561.183594 49.609375 C 492.585938 49.609375 418.667969 69.191406 339.367188 108.308594 C 257.160156 157.828125 207.113281 195.507812 189.15625 221.335938 C 172.28125 228.554688 163.871094 245.253906 163.871094 271.414062 Z M 67.484375 1644.136719 L 67.484375 1648.453125 L 71.785156 1648.453125 C 109.117188 1617.925781 129.945312 1602.710938 134.246094 1602.710938 L 134.246094 1594.074219 L 130.46875 1594.074219 C 108.578125 1610.285156 87.574219 1626.929688 67.484375 1644.136719 Z M 84.199219 1368.019531 L 88.484375 1388.96875 L 88.484375 1401.941406 C 81.664062 1410.914062 76.105469 1422 71.785156 1435.253906 L 76.105469 1435.253906 C 76.105469 1438.15625 74.671875 1439.625 71.785156 1439.625 L 76.105469 1460.066406 C 67.484375 1504.898438 60.488281 1549.589844 55.101562 1594.074219 L 59.402344 1594.074219 C 103.90625 1570.050781 126.1875 1540.777344 126.1875 1506.367188 C 131.570312 1453.578125 141.242188 1388.113281 155.230469 1309.882812 C 152.363281 1309.882812 130.101562 1329.238281 88.484375 1368.019531 Z M 55.101562 317.699219 C 55.101562 320.617188 59.230469 337.28125 67.484375 367.828125 L 63.179688 367.828125 C 66.050781 394.003906 71.609375 417.679688 79.863281 438.835938 L 76.105469 438.835938 L 92.785156 510.441406 L 88.484375 510.441406 C 98.539062 549.222656 105.535156 568.5625 109.449219 568.5625 C 134.597656 554.925781 147.167969 535.53125 147.167969 510.441406 L 121.867188 267.671875 L 121.867188 259.070312 L 117.566406 259.070312 C 113.945312 259.070312 97.28125 275.730469 67.484375 309.148438 C 59.230469 309.148438 55.101562 311.960938 55.101562 317.699219 Z M 565.46875 -0.417969 C 730.230469 40.5 812.558594 72.621094 812.558594 95.964844 C 840.589844 105.964844 874.128906 133.785156 913.246094 179.351562 C 949.476562 242.492188 967.628906 297.082031 967.628906 343.015625 C 956.121094 402.257812 944.84375 437.035156 933.6875 447.441406 L 938.042969 447.441406 C 911.09375 504.179688 890.285156 541.863281 875.5625 560.519531 C 860.46875 589.25 836.617188 621.371094 803.953125 656.832031 C 792.8125 671.589844 787.269531 681.257812 787.269531 685.945312 C 790.15625 685.945312 791.574219 687.394531 791.574219 690.246094 L 800.175781 685.945312 L 803.953125 685.945312 C 803.953125 696.367188 823.519531 706.226562 862.621094 715.53125 C 862.621094 718.066406 866.941406 720.773438 875.5625 723.625 L 875.5625 719.324219 C 925.816406 742.300781 970.320312 774.421875 1009.089844 815.6875 C 1041.371094 854.050781 1072.058594 905.753906 1101.140625 970.695312 C 1104.042969 970.695312 1108.308594 997.257812 1114.0625 1050.394531 C 1114.0625 1095.28125 1107.050781 1132.753906 1093.078125 1162.878906 C 1095.929688 1162.878906 1097.378906 1164.332031 1097.378906 1167.234375 C 1092.730469 1167.234375 1081.398438 1190.890625 1063.457031 1238.277344 C 1024.320312 1302.871094 975.496094 1365.660156 917.023438 1426.703125 C 903.382812 1440.65625 826.757812 1499.355469 687.160156 1602.710938 C 559.015625 1658.371094 486.324219 1686.1875 469.117188 1686.1875 C 469.117188 1696.191406 413.28125 1710.195312 301.683594 1728.152344 L 297.921875 1728.152344 L 297.921875 1723.816406 L 289.300781 1728.152344 L 218.21875 1728.152344 C 215.367188 1728.152344 213.917969 1726.703125 213.917969 1723.816406 L 205.835938 1728.152344 C 88.484375 1708.046875 29.816406 1684.371094 29.816406 1657.058594 C 10.421875 1636.300781 0.734375 1620.84375 0.734375 1610.789062 C 8.988281 1610.789062 15.96875 1578.652344 21.71875 1514.410156 C 29.972656 1500.054688 34.117188 1480.679688 34.117188 1456.289062 L 34.117188 1430.96875 C 34.117188 1428.121094 32.667969 1426.703125 29.816406 1426.703125 C 35.535156 1417.714844 38.402344 1409.445312 38.402344 1401.941406 L 38.402344 1384.71875 C 38.402344 1382.183594 36.96875 1380.925781 34.117188 1380.925781 L 38.402344 1372.324219 L 34.117188 1364.210938 C 34.117188 1359.207031 74.476562 1322.769531 155.230469 1254.941406 C 155.230469 1250.972656 159.550781 1245.449219 168.152344 1238.277344 C 177.125 1244.03125 185.359375 1246.882812 192.933594 1246.882812 L 201.535156 1246.882812 C 204.402344 1246.882812 205.835938 1245.449219 205.835938 1242.578125 C 218.394531 1248.296875 236.542969 1251.183594 260.222656 1251.183594 L 263.980469 1251.183594 C 266.847656 1251.183594 268.316406 1249.730469 268.316406 1246.882812 L 276.902344 1251.183594 L 285 1246.882812 C 294.304688 1252.25 301.332031 1254.941406 305.949219 1254.941406 C 314.585938 1254.941406 331.460938 1250.832031 356.574219 1242.578125 L 364.6875 1246.882812 C 385.113281 1246.882812 410.238281 1213.308594 440.019531 1146.234375 L 444.339844 1129.5 C 429.632812 1118.398438 417.078125 1112.835938 406.671875 1112.835938 C 381.507812 1123.957031 336.847656 1136.496094 272.601562 1150.519531 C 262.546875 1161.621094 231.859375 1172.777344 180.535156 1183.878906 C 180.535156 1187.449219 172.105469 1191.800781 155.230469 1196.785156 L 151.472656 1188.199219 L 151.472656 1146.234375 C 151.472656 1143.015625 148.585938 1127.699219 142.886719 1100.492188 L 142.886719 1087.519531 C 142.886719 1081.433594 144.300781 1075.855469 147.167969 1070.871094 C 144.300781 1066.167969 142.886719 1060.605469 142.886719 1054.15625 L 147.167969 1046.113281 L 142.886719 1037.457031 C 145.734375 1032.789062 147.167969 1027.246094 147.167969 1020.792969 L 142.886719 1012.714844 L 147.167969 1012.714844 C 147.167969 1009.828125 145.734375 1008.429688 142.886719 1008.429688 L 147.167969 970.695312 C 147.167969 955.640625 144.300781 930.515625 138.53125 895.351562 L 142.886719 895.351562 L 138.53125 886.730469 L 138.53125 824.308594 C 138.53125 820.355469 152.539062 810.492188 180.535156 794.6875 C 198.476562 776.011719 226.316406 753.734375 263.980469 727.945312 C 263.980469 721.476562 269.75 714.480469 281.222656 706.910156 C 281.222656 700.859375 292.363281 693.863281 314.585938 685.945312 C 381.351562 632.105469 414.714844 569.316406 414.714844 497.519531 C 417.585938 487.867188 419.035156 474 419.035156 456.097656 L 394.273438 435.097656 C 383.519531 435.097656 345.820312 454.644531 281.222656 493.761719 C 244.589844 533.242188 204.035156 562.476562 159.550781 581.539062 C 122.582031 617.75 98.890625 635.847656 88.484375 635.847656 L 79.863281 635.847656 C 79.863281 619.707031 67.273438 568.074219 42.195312 480.855469 C 28.539062 408.324219 21.71875 367.984375 21.71875 359.734375 L 25.496094 359.734375 C 11.507812 327.417969 4.496094 309.304688 4.496094 305.351562 C 51.867188 260.871094 109.117188 214.726562 176.234375 167.007812 C 196.324219 142.929688 239.585938 112.257812 305.949219 74.929688 C 332.179688 53.421875 373.988281 38.171875 431.433594 29.203125 C 431.433594 18.800781 462.296875 11.789062 524.007812 8.1875 L 524.007812 3.882812 C 529.410156 6.734375 533.539062 8.1875 536.390625 8.1875 C 555.765625 8.1875 565.46875 5.335938 565.46875 -0.417969"/><path fill="#FFF" d="M 55.101562 317.699219 C 55.101562 320.617188 59.230469 337.28125 67.484375 367.828125 L 63.179688 367.828125 C 66.050781 394.003906 71.609375 417.679688 79.863281 438.835938 L 76.105469 438.835938 L 92.785156 510.441406 L 88.484375 510.441406 C 98.539062 549.222656 105.535156 568.5625 109.449219 568.5625 C 134.597656 554.925781 147.167969 535.53125 147.167969 510.441406 L 121.867188 267.671875 L 121.867188 259.070312 L 117.566406 259.070312 C 113.945312 259.070312 97.28125 275.730469 67.484375 309.148438 C 59.230469 309.148438 55.101562 311.960938 55.101562 317.699219"/><path fill="#FFF" d="M 84.199219 1368.019531 L 88.484375 1388.96875 L 88.484375 1401.941406 C 81.664062 1410.914062 76.105469 1422 71.785156 1435.253906 L 76.105469 1435.253906 C 76.105469 1438.15625 74.671875 1439.625 71.785156 1439.625 L 76.105469 1460.066406 C 67.484375 1504.898438 60.488281 1549.589844 55.101562 1594.074219 L 59.402344 1594.074219 C 103.90625 1570.050781 126.1875 1540.777344 126.1875 1506.367188 C 131.570312 1453.578125 141.242188 1388.113281 155.230469 1309.882812 C 152.363281 1309.882812 130.101562 1329.238281 88.484375 1368.019531 L 84.199219 1368.019531"/><path fill="#FFF" d="M 67.484375 1644.136719 L 67.484375 1648.453125 L 71.785156 1648.453125 C 109.117188 1617.925781 129.945312 1602.710938 134.246094 1602.710938 L 134.246094 1594.074219 L 130.46875 1594.074219 C 108.578125 1610.285156 87.574219 1626.929688 67.484375 1644.136719"/><path fill="#FFF" d="M 163.871094 271.414062 C 166.703125 277.183594 168.152344 281.46875 168.152344 284.335938 L 163.871094 284.335938 C 173.207031 356.882812 181.601562 407.066406 189.15625 435.097656 C 189.15625 437.597656 187.703125 438.835938 184.855469 438.835938 L 197.234375 501.839844 C 270.820312 451.585938 311.371094 426.476562 318.90625 426.476562 C 362.675781 398.464844 389.0625 384.441406 398.050781 384.441406 L 448.640625 364.050781 L 448.640625 367.828125 C 470.183594 359.539062 496.554688 355.433594 527.769531 355.433594 C 583.796875 366.535156 611.757812 383.25 611.757812 405.476562 C 608.90625 410.859375 607.453125 415.164062 607.453125 418.363281 L 611.757812 438.835938 L 607.453125 438.835938 C 607.453125 441.6875 608.90625 443.140625 611.757812 443.140625 C 610.339844 477.953125 583.796875 526.753906 532.070312 589.582031 C 518.097656 589.582031 497.097656 606.453125 469.117188 640.167969 C 460.113281 640.167969 444.863281 651.289062 423.320312 673.546875 C 347.953125 713.378906 310.285156 751.09375 310.285156 786.625 L 314.585938 794.6875 C 314.585938 797.570312 313.152344 798.988281 310.285156 798.988281 C 316.023438 826.25 318.90625 862.511719 318.90625 907.765625 L 322.667969 907.765625 L 318.90625 916.351562 L 318.90625 962.09375 L 322.667969 970.695312 L 318.90625 970.695312 C 321.425781 976.101562 322.667969 980.207031 322.667969 983.109375 C 320.148438 1012.171875 318.90625 1028.886719 318.90625 1033.191406 C 321.425781 1038.539062 322.667969 1042.84375 322.667969 1046.113281 L 326.984375 1046.113281 L 402.351562 1029.378906 C 405.203125 1029.378906 406.671875 1030.636719 406.671875 1033.191406 C 445.789062 1024.183594 466.601562 1018.640625 469.117188 1016.472656 C 480.605469 1018.640625 486.324219 1021.476562 486.324219 1025.078125 L 494.402344 1020.792969 L 524.007812 1025.078125 C 525.074219 1025.078125 530.652344 1023.644531 540.691406 1020.792969 C 565.820312 1023.644531 593.625 1039.101562 624.15625 1067.078125 C 624.15625 1072.445312 621.445312 1075.171875 616.058594 1075.171875 C 621.445312 1089.878906 625.570312 1107.976562 628.472656 1129.5 C 614.484375 1185.488281 592.03125 1223.171875 561.183594 1242.578125 C 513.0625 1269.488281 475.554688 1287.605469 448.640625 1296.976562 C 429.632812 1299.828125 419.769531 1304.128906 419.035156 1309.882812 C 416.167969 1309.882812 414.714844 1308.414062 414.714844 1305.527344 C 380.617188 1308.414062 359.789062 1312.574219 352.273438 1317.925781 L 352.273438 1313.640625 C 342.234375 1319.375 329.679688 1322.226562 314.585938 1322.226562 C 308.484375 1317.925781 290.351562 1313.832031 260.222656 1309.882812 L 260.222656 1313.640625 C 235.09375 1311.140625 222.519531 1308.414062 222.519531 1305.527344 C 204.597656 1305.527344 193.441406 1323.679688 189.15625 1359.925781 L 192.933594 1368.019531 C 190.398438 1372.65625 184.855469 1395.089844 176.234375 1435.253906 L 180.535156 1435.253906 C 174.78125 1452.527344 171.929688 1463.648438 171.929688 1468.6875 L 176.234375 1468.6875 L 163.871094 1527.367188 C 179.644531 1555.328125 206.1875 1569.351562 243.523438 1569.351562 C 248.191406 1569.351562 256.445312 1571.992188 268.316406 1577.410156 L 268.316406 1573.09375 L 322.667969 1586.066406 L 326.984375 1586.066406 C 329.855469 1586.066406 331.269531 1584.597656 331.269531 1581.710938 L 356.574219 1589.753906 C 361.242188 1587.324219 366.785156 1586.066406 373.253906 1586.066406 C 375.792969 1586.066406 377.03125 1587.324219 377.03125 1589.753906 L 385.652344 1586.066406 L 398.050781 1586.066406 C 400.917969 1586.066406 402.351562 1587.324219 402.351562 1589.753906 C 446.839844 1583.304688 469.117188 1579.210938 469.117188 1577.410156 C 471.96875 1577.410156 473.402344 1578.792969 473.402344 1581.710938 C 535.515625 1570.589844 588.621094 1558.035156 632.757812 1544.03125 C 647.480469 1544.03125 671.175781 1532.945312 703.84375 1510.667969 C 716.011719 1510.667969 764.835938 1481.242188 850.257812 1422.347656 C 928.160156 1348.804688 975.496094 1294.40625 992.390625 1259.242188 C 1029.722656 1219.410156 1056.269531 1149.765625 1072.058594 1050.394531 C 1050.550781 966.394531 1033.851562 924.429688 1021.996094 924.429688 C 1021.996094 921.910156 1023.253906 920.671875 1025.789062 920.671875 C 986.636719 844.207031 925.257812 789.667969 841.671875 757.003906 L 841.671875 761.289062 C 827.648438 753.054688 816.507812 748.945312 808.289062 748.945312 L 803.953125 748.945312 L 783.492188 753.261719 C 783.492188 746.8125 763.945312 736.878906 724.808594 723.625 L 720.523438 685.945312 C 733.042969 678.390625 763.734375 640.707031 812.558594 572.882812 C 812.558594 566.761719 830.707031 537.542969 866.941406 485.175781 C 900.339844 428.066406 917.023438 377.847656 917.023438 334.414062 L 917.023438 322 C 917.023438 319.148438 915.761719 317.699219 913.246094 317.699219 L 917.023438 309.148438 C 917.023438 269.628906 894.761719 223.695312 850.257812 171.308594 C 776.675781 119.972656 708.320312 85.191406 645.140625 66.882812 L 645.140625 70.625 C 635.800781 65.277344 627.371094 62.582031 619.851562 62.582031 L 607.453125 62.582031 L 607.453125 53.980469 L 598.851562 53.980469 C 584.109375 53.980469 571.554688 52.527344 561.183594 49.609375 C 492.585938 49.609375 418.667969 69.191406 339.367188 108.308594 C 257.160156 157.828125 207.113281 195.507812 189.15625 221.335938 C 172.28125 228.554688 163.871094 245.253906 163.871094 271.414062"/><path fill="#FFF" d="M 180.535156 849.066406 L 184.855469 857.667969 L 184.855469 878.6875 C 185.921875 934.273438 188.628906 962.09375 192.933594 962.09375 L 189.15625 970.695312 L 189.15625 1020.792969 C 189.15625 1048.402344 187.703125 1081.976562 184.855469 1121.441406 C 187.703125 1135.464844 190.398438 1142.457031 192.933594 1142.457031 C 243.15625 1113.027344 268.316406 1092.027344 268.316406 1079.472656 C 271.167969 1061.167969 272.601562 1043.050781 272.601562 1025.078125 L 272.601562 870.03125 C 272.601562 867.183594 271.167969 865.730469 268.316406 865.730469 L 272.601562 857.667969 C 272.601562 854.820312 271.167969 853.386719 268.316406 853.386719 L 272.601562 845.308594 L 272.601562 840.953125 L 268.316406 832.351562 L 272.601562 832.351562 C 266.847656 815.128906 263.980469 803.988281 263.980469 798.988281 C 266.847656 798.988281 268.316406 797.570312 268.316406 794.6875 C 265.433594 794.6875 263.980469 793.289062 263.980469 790.367188 C 266.847656 790.367188 268.316406 789.125 268.316406 786.625 L 263.980469 786.625 L 180.535156 849.066406"/><path fill="#FFF" d="M 276.902344 1623.695312 C 276.902344 1629.082031 264.367188 1641.652344 239.238281 1661.359375 L 239.238281 1665.171875 C 257.894531 1663.371094 278.6875 1652.25 301.683594 1631.757812 L 301.683594 1627.488281 C 289.09375 1627.488281 280.855469 1626.195312 276.902344 1623.695312"/><path fill="#FFF" d="M 326.984375 1673.773438 L 331.269531 1673.773438 C 367.539062 1661.570312 385.652344 1649.015625 385.652344 1636.109375 L 385.652344 1631.757812 C 349.035156 1652.597656 329.484375 1666.570312 326.984375 1673.773438"/><path fill="#FFF" d="M 410.972656 1661.359375 C 419.925781 1655.660156 426.765625 1652.773438 431.433594 1652.773438 L 431.433594 1657.058594 C 449.007812 1646.652344 468.558594 1638.242188 490.101562 1631.757812 L 490.101562 1627.488281 C 450.265625 1627.488281 423.878906 1637.335938 410.972656 1657.058594 L 410.972656 1661.359375"/><path fill="#FFF" d="M 435.734375 1251.183594 L 435.734375 1254.941406 C 447.921875 1252.074219 477.371094 1239.539062 524.007812 1217.277344 C 562.777344 1178.898438 582.152344 1146.898438 582.152344 1121.441406 L 574.089844 1117.15625 C 525.667969 1147.667969 496.398438 1162.878906 486.324219 1162.878906 C 471.617188 1198.742188 454.726562 1228.222656 435.734375 1251.183594"/><path fill="#FFF" d="M 465.324219 551.898438 L 456.703125 548.140625 C 451.683594 557.128906 447.574219 572.375 444.339844 593.882812 L 448.640625 593.882812 C 468.015625 580.941406 481.832031 566.972656 490.101562 551.898438 C 517.015625 534.308594 536.582031 509.183594 548.804688 476.519531 C 493.144531 509.53125 465.324219 534.695312 465.324219 551.898438"/><path fill="#FFF" d="M 469.117188 485.175781 C 469.117188 482.253906 467.839844 480.855469 465.324219 480.855469 L 465.324219 493.761719 L 469.117188 493.761719 C 530.09375 462.164062 560.800781 442.648438 561.183594 435.097656 L 561.183594 418.363281 L 557.390625 418.363281 C 545.515625 421.632812 533.015625 431.335938 519.722656 447.441406 C 506.085938 448.191406 489.191406 460.746094 469.117188 485.175781"/><path fill="#FFF" d="M 540.691406 1070.871094 C 506.957031 1099.933594 490.101562 1115.335938 490.101562 1117.15625 L 490.101562 1129.5 C 495.855469 1129.5 520.984375 1114.234375 565.46875 1083.757812 C 562.585938 1075.171875 554.347656 1070.871094 540.691406 1070.871094"/></svg>