<svg xmlns="http://www.w3.org/2000/svg" xmlns:xlink="http://www.w3.org/1999/xlink" width="1296" viewBox="0 0 1296 1728" height="1728" version="1.0"><defs><clipPath id="a"><path d="M 0 0 L 1296 0 L 1296 1296 L 0 1296 Z M 0 0"/></clipPath><clipPath id="b"><path d="M 1296 648 C 1296 658.605469 1295.738281 669.203125 1295.21875 679.796875 C 1294.699219 690.386719 1293.917969 700.960938 1292.878906 711.515625 C 1291.839844 722.070312 1290.542969 732.589844 1288.984375 743.082031 C 1287.429688 753.570312 1285.617188 764.015625 1283.546875 774.417969 C 1281.480469 784.820312 1279.15625 795.164062 1276.578125 805.449219 C 1274.003906 815.738281 1271.175781 825.957031 1268.097656 836.105469 C 1265.019531 846.253906 1261.691406 856.320312 1258.121094 866.304688 C 1254.546875 876.289062 1250.730469 886.179688 1246.671875 895.980469 C 1242.613281 905.777344 1238.320312 915.46875 1233.785156 925.054688 C 1229.25 934.640625 1224.484375 944.113281 1219.484375 953.464844 C 1214.484375 962.816406 1209.261719 972.042969 1203.808594 981.136719 C 1198.355469 990.234375 1192.683594 999.191406 1186.792969 1008.007812 C 1180.898438 1016.828125 1174.796875 1025.496094 1168.476562 1034.011719 C 1162.160156 1042.53125 1155.636719 1050.890625 1148.910156 1059.085938 C 1142.183594 1067.285156 1135.257812 1075.3125 1128.136719 1083.171875 C 1121.015625 1091.027344 1113.703125 1098.707031 1106.203125 1106.203125 C 1098.707031 1113.703125 1091.027344 1121.015625 1083.171875 1128.136719 C 1075.3125 1135.257812 1067.285156 1142.183594 1059.085938 1148.910156 C 1050.890625 1155.636719 1042.53125 1162.160156 1034.011719 1168.476562 C 1025.496094 1174.796875 1016.828125 1180.898438 1008.007812 1186.792969 C 999.191406 1192.683594 990.234375 1198.355469 981.136719 1203.808594 C 972.042969 1209.261719 962.816406 1214.484375 953.464844 1219.484375 C 944.113281 1224.484375 934.640625 1229.25 925.054688 1233.785156 C 915.46875 1238.320312 905.777344 1242.613281 895.980469 1246.671875 C 886.179688 1250.730469 876.289062 1254.546875 866.304688 1258.121094 C 856.320312 1261.691406 846.253906 1265.019531 836.105469 1268.097656 C 825.957031 1271.175781 815.738281 1274.003906 805.449219 1276.578125 C 795.164062 1279.15625 784.820312 1281.480469 774.417969 1283.546875 C 764.015625 1285.617188 753.570312 1287.429688 743.082031 1288.984375 C 732.589844 1290.542969 722.070312 1291.839844 711.515625 1292.878906 C 700.960938 1293.917969 690.386719 1294.699219 679.796875 1295.21875 C 669.203125 1295.738281 658.605469 1296 648 1296 C 637.394531 1296 626.796875 1295.738281 616.203125 1295.21875 C 605.613281 1294.699219 595.039062 1293.917969 584.484375 1292.878906 C 573.929688 1291.839844 563.410156 1290.542969 552.917969 1288.984375 C 542.429688 1287.429688 531.984375 1285.617188 521.582031 1283.546875 C 511.179688 1281.480469 500.835938 1279.15625 490.546875 1276.578125 C 480.261719 1274.003906 470.042969 1271.175781 459.894531 1268.097656 C 449.746094 1265.019531 439.679688 1261.691406 429.695312 1258.121094 C 419.710938 1254.546875 409.820312 1250.730469 400.019531 1246.671875 C 390.222656 1242.613281 380.53125 1238.320312 370.945312 1233.785156 C 361.359375 1229.25 351.886719 1224.484375 342.535156 1219.484375 C 333.183594 1214.484375 323.957031 1209.261719 314.863281 1203.808594 C 305.765625 1198.355469 296.808594 1192.683594 287.992188 1186.792969 C 279.171875 1180.898438 270.503906 1174.796875 261.988281 1168.476562 C 253.46875 1162.160156 245.109375 1155.636719 236.914062 1148.910156 C 228.714844 1142.183594 220.6875 1135.257812 212.828125 1128.136719 C 204.972656 1121.015625 197.292969 1113.703125 189.792969 1106.203125 C 182.296875 1098.707031 174.984375 1091.027344 167.863281 1083.171875 C 160.742188 1075.3125 153.816406 1067.285156 147.089844 1059.085938 C 140.363281 1050.890625 133.839844 1042.53125 127.523438 1034.011719 C 121.203125 1025.496094 115.097656 1016.828125 109.207031 1008.007812 C 103.316406 999.191406 97.644531 990.234375 92.191406 981.136719 C 86.738281 972.042969 81.515625 962.816406 76.515625 953.464844 C 71.515625 944.113281 66.75 934.640625 62.214844 925.054688 C 57.679688 915.46875 53.382812 905.777344 49.324219 895.980469 C 45.269531 886.179688 41.453125 876.289062 37.878906 866.304688 C 34.308594 856.320312 30.980469 846.253906 27.902344 836.105469 C 24.824219 825.957031 21.996094 815.738281 19.417969 805.449219 C 16.84375 795.164062 14.519531 784.820312 12.449219 774.417969 C 10.382812 764.015625 8.570312 753.570312 7.011719 743.082031 C 5.457031 732.589844 4.160156 722.070312 3.121094 711.515625 C 2.082031 700.960938 1.300781 690.386719 0.78125 679.796875 C 0.261719 669.203125 0 658.605469 0 648 C 0 637.394531 0.261719 626.796875 0.78125 616.203125 C 1.300781 605.613281 2.082031 595.039062 3.121094 584.484375 C 4.160156 573.929688 5.457031 563.410156 7.011719 552.917969 C 8.570312 542.429688 10.382812 531.984375 12.449219 521.582031 C 14.519531 511.179688 16.84375 500.835938 19.417969 490.546875 C 21.996094 480.261719 24.824219 470.042969 27.902344 459.894531 C 30.980469 449.746094 34.308594 439.679688 37.878906 429.695312 C 41.453125 419.710938 45.269531 409.820312 49.324219 400.019531 C 53.382812 390.222656 57.679688 380.53125 62.214844 370.945312 C 66.75 361.359375 71.515625 351.886719 76.515625 342.535156 C 81.515625 333.183594 86.738281 323.957031 92.191406 314.863281 C 97.644531 305.765625 103.316406 296.808594 109.207031 287.992188 C 115.097656 279.171875 121.203125 270.503906 127.523438 261.988281 C 133.839844 253.46875 140.363281 245.109375 147.089844 236.914062 C 153.816406 228.714844 160.742188 220.6875 167.863281 212.828125 C 174.984375 204.972656 182.296875 197.292969 189.792969 189.792969 C 197.292969 182.296875 204.972656 174.984375 212.828125 167.863281 C 220.6875 160.742188 228.714844 153.816406 236.914062 147.089844 C 245.109375 140.363281 253.46875 133.839844 261.988281 127.523438 C 270.503906 121.203125 279.171875 115.097656 287.992188 109.207031 C 296.808594 103.316406 305.765625 97.644531 314.863281 92.191406 C 323.957031 86.738281 333.183594 81.515625 342.535156 76.515625 C 351.886719 71.515625 361.359375 66.75 370.945312 62.214844 C 380.53125 57.679688 390.222656 53.382812 400.019531 49.324219 C 409.820312 45.269531 419.710938 41.453125 429.695312 37.878906 C 439.679688 34.308594 449.746094 30.980469 459.894531 27.902344 C 470.042969 24.824219 480.261719 21.996094 490.550781 19.417969 C 500.835938 16.84375 511.179688 14.519531 521.582031 12.449219 C 531.984375 10.382812 542.429688 8.570312 552.917969 7.011719 C 563.410156 5.457031 573.929688 4.160156 584.484375 3.121094 C 595.039062 2.082031 605.613281 1.300781 616.203125 0.78125 C 626.796875 0.261719 637.394531 0 648 0 C 658.605469 0 669.203125 0.261719 679.796875 0.78125 C 690.386719 1.300781 700.960938 2.082031 711.515625 3.121094 C 722.070312 4.160156 732.589844 5.457031 743.082031 7.011719 C 753.570312 8.570312 764.015625 10.382812 774.417969 12.449219 C 784.820312 14.519531 795.164062 16.84375 805.449219 19.417969 C 815.738281 21.996094 825.957031 24.824219 836.105469 27.902344 C 846.253906 30.980469 856.320312 34.308594 866.304688 37.878906 C 876.289062 41.453125 886.179688 45.269531 895.980469 49.324219 C 905.777344 53.382812 915.46875 57.679688 925.054688 62.214844 C 934.640625 66.75 944.113281 71.515625 953.464844 76.515625 C 962.816406 81.515625 972.042969 86.738281 981.136719 92.191406 C 990.234375 97.644531 999.191406 103.316406 1008.007812 109.207031 C 1016.828125 115.097656 1025.496094 121.203125 1034.011719 127.523438 C 1042.53125 133.839844 1050.890625 140.363281 1059.085938 147.089844 C 1067.285156 153.816406 1075.3125 160.742188 1083.171875 167.863281 C 1091.027344 174.984375 1098.707031 182.296875 1106.203125 189.792969 C 1113.703125 197.292969 1121.015625 204.972656 1128.136719 212.828125 C 1135.257812 220.6875 1142.183594 228.714844 1148.910156 236.914062 C 1155.636719 245.109375 1162.160156 253.46875 1168.476562 261.988281 C 1174.796875 270.503906 1180.898438 279.171875 1186.792969 287.992188 C 1192.683594 296.808594 1198.355469 305.765625 1203.808594 314.863281 C 1209.261719 323.957031 1214.484375 333.183594 1219.484375 342.535156 C 1224.484375 351.886719 1229.25 361.359375 1233.785156 370.945312 C 1238.320312 380.53125 1242.613281 390.222656 1246.671875 400.019531 C 1250.730469 409.820312 1254.546875 419.710938 1258.121094 429.695312 C 1261.691406 439.679688 1265.019531 449.746094 1268.097656 459.894531 C 1271.175781 470.042969 1274.003906 480.261719 1276.578125 490.546875 C 1279.15625 500.835938 1281.480469 511.179688 1283.546875 521.582031 C 1285.617188 531.984375 1287.429688 542.429688 1288.984375 552.917969 C 1290.542969 563.410156 1291.839844 573.929688 1292.878906 584.484375 C 1293.917969 595.039062 1294.699219 605.613281 1295.21875 616.203125 C 1295.738281 626.796875 1296 637.394531 1296 648 Z M 1296 648"/></clipPath><clipPath id="d"><path d="M 270 264 L 1026 264 L 1026 1032 L 270 1032 Z M 270 264"/></clipPath><clipPath id="e"><path d="M 1026 540 L 1026 486 L 845.34375 486 L 890.40625 275.644531 L 837.59375 264.355469 L 790.101562 486 L 575.34375 486 L 620.40625 275.644531 L 567.59375 264.355469 L 520.101562 486 L 270 486 L 270 540 L 508.519531 540 L 462.238281 756 L 270 756 L 270 810 L 450.65625 810 L 405.59375 1020.355469 L 458.40625 1031.644531 L 505.898438 810 L 720.65625 810 L 675.59375 1020.355469 L 728.40625 1031.644531 L 775.898438 810 L 1026 810 L 1026 756 L 787.480469 756 L 833.761719 540 Z M 732.238281 756 L 517.480469 756 L 563.761719 540 L 778.519531 540 Z M 732.238281 756"/></clipPath><linearGradient x1="5" gradientTransform="matrix(27 0 0 27 -135 -135)" xmlns:xlink="http://www.w3.org/1999/xlink" y1="29" x2="53" gradientUnits="userSpaceOnUse" y2="29" xlink:type="simple" xlink:actuate="onLoad" id="c" xlink:show="other"><stop stop-color="#F8EEFF" offset="0"/><stop stop-color="#F8EEFF" offset=".016"/><stop stop-color="#F8EDFF" offset=".031"/><stop stop-color="#F7ECFF" offset=".047"/><stop stop-color="#F7EBFF" offset=".063"/><stop stop-color="#F7EBFF" offset=".078"/><stop stop-color="#F7EAFF" offset=".094"/><stop stop-color="#F6E9FF" offset=".109"/><stop stop-color="#F6E9FF" offset=".125"/><stop stop-color="#F6E8FF" offset=".141"/><stop stop-color="#F6E7FF" offset=".156"/><stop stop-color="#F5E7FF" offset=".172"/><stop stop-color="#F5E6FF" offset=".188"/><stop stop-color="#F5E5FF" offset=".203"/><stop stop-color="#F4E5FF" offset=".219"/><stop stop-color="#F4E4FF" offset=".234"/><stop stop-color="#F4E3FF" offset=".25"/><stop stop-color="#F4E2FF" offset=".266"/><stop stop-color="#F3E2FF" offset=".281"/><stop stop-color="#F3E1FF" offset=".297"/><stop stop-color="#F3E0FF" offset=".313"/><stop stop-color="#F3E0FF" offset=".328"/><stop stop-color="#F2DFFF" offset=".344"/><stop stop-color="#F2DEFF" offset=".359"/><stop stop-color="#F2DEFF" offset=".375"/><stop stop-color="#F2DDFF" offset=".391"/><stop stop-color="#F1DCFF" offset=".406"/><stop stop-color="#F1DCFF" offset=".422"/><stop stop-color="#F1DBFF" offset=".438"/><stop stop-color="#F0DAFF" offset=".453"/><stop stop-color="#F0D9FF" offset=".469"/><stop stop-color="#F0D9FF" offset=".484"/><stop stop-color="#F0D8FF" offset=".5"/><stop stop-color="#EFD7FF" offset=".516"/><stop stop-color="#EFD7FF" offset=".531"/><stop stop-color="#EFD6FF" offset=".547"/><stop stop-color="#EFD5FF" offset=".563"/><stop stop-color="#EED5FF" offset=".578"/><stop stop-color="#EED4FF" offset=".594"/><stop stop-color="#EED3FF" offset=".609"/><stop stop-color="#EDD3FF" offset=".625"/><stop stop-color="#EDD2FF" offset=".641"/><stop stop-color="#EDD1FF" offset=".656"/><stop stop-color="#EDD0FF" offset=".672"/><stop stop-color="#ECD0FF" offset=".688"/><stop stop-color="#ECCFFF" offset=".703"/><stop stop-color="#ECCEFF" offset=".719"/><stop stop-color="#ECCEFF" offset=".734"/><stop stop-color="#EBCDFF" offset=".75"/><stop stop-color="#EBCCFF" offset=".766"/><stop stop-color="#EBCCFF" offset=".781"/><stop stop-color="#EACBFF" offset=".797"/><stop stop-color="#EACAFF" offset=".813"/><stop stop-color="#EACAFF" offset=".828"/><stop stop-color="#EAC9FF" offset=".844"/><stop stop-color="#E9C8FF" offset=".859"/><stop stop-color="#E9C7FF" offset=".875"/><stop stop-color="#E9C7FF" offset=".891"/><stop stop-color="#E9C6FF" offset=".906"/><stop stop-color="#E8C5FF" offset=".922"/><stop stop-color="#E8C5FF" offset=".938"/><stop stop-color="#E8C4FF" offset=".953"/><stop stop-color="#E8C3FF" offset=".969"/><stop stop-color="#E7C3FF" offset="1"/></linearGradient><linearGradient x1="42.259" gradientTransform="matrix(27 0 0 27 -135 -135)" xmlns:xlink="http://www.w3.org/1999/xlink" y1="14.13" x2="15.741" gradientUnits="userSpaceOnUse" y2="43.87" xlink:type="simple" xlink:actuate="onLoad" id="f" xlink:show="other"><stop stop-color="#A46EFE" offset="0"/><stop stop-color="#A46EFE" offset=".016"/><stop stop-color="#A46FFE" offset=".031"/><stop stop-color="#A56FFE" offset=".047"/><stop stop-color="#A570FE" offset=".063"/><stop stop-color="#A570FE" offset=".078"/><stop stop-color="#A671FE" offset=".094"/><stop stop-color="#A671FE" offset=".109"/><stop stop-color="#A672FE" offset=".125"/><stop stop-color="#A673FD" offset=".141"/><stop stop-color="#A773FD" offset=".156"/><stop stop-color="#A774FD" offset=".172"/><stop stop-color="#A774FD" offset=".188"/><stop stop-color="#A875FD" offset=".203"/><stop stop-color="#A875FD" offset=".219"/><stop stop-color="#A876FD" offset=".234"/><stop stop-color="#A876FD" offset=".25"/><stop stop-color="#A977FD" offset=".266"/><stop stop-color="#A977FD" offset=".281"/><stop stop-color="#A978FD" offset=".297"/><stop stop-color="#AA78FC" offset=".313"/><stop stop-color="#AA79FC" offset=".328"/><stop stop-color="#AA79FC" offset=".344"/><stop stop-color="#AA7AFC" offset=".359"/><stop stop-color="#AB7BFC" offset=".375"/><stop stop-color="#AB7BFC" offset=".391"/><stop stop-color="#AB7CFC" offset=".406"/><stop stop-color="#AC7CFC" offset=".422"/><stop stop-color="#AC7DFC" offset=".438"/><stop stop-color="#AC7DFC" offset=".453"/><stop stop-color="#AC7EFB" offset=".468"/><stop stop-color="#AD7EFB" offset=".469"/><stop stop-color="#AD7EFB" offset=".484"/><stop stop-color="#AD7FFB" offset=".5"/><stop stop-color="#AD7FFB" offset=".516"/><stop stop-color="#AE80FB" offset=".531"/><stop stop-color="#AE80FB" offset=".532"/><stop stop-color="#AE81FB" offset=".547"/><stop stop-color="#AE81FB" offset=".563"/><stop stop-color="#AE81FB" offset=".578"/><stop stop-color="#AF82FB" offset=".594"/><stop stop-color="#AF83FB" offset=".609"/><stop stop-color="#AF83FA" offset=".625"/><stop stop-color="#B084FA" offset=".641"/><stop stop-color="#B084FA" offset=".656"/><stop stop-color="#B085FA" offset=".672"/><stop stop-color="#B085FA" offset=".688"/><stop stop-color="#B186FA" offset=".703"/><stop stop-color="#B186FA" offset=".719"/><stop stop-color="#B187FA" offset=".734"/><stop stop-color="#B287FA" offset=".75"/><stop stop-color="#B288FA" offset=".766"/><stop stop-color="#B288FA" offset=".781"/><stop stop-color="#B289F9" offset=".797"/><stop stop-color="#B389F9" offset=".813"/><stop stop-color="#B38AF9" offset=".828"/><stop stop-color="#B38BF9" offset=".844"/><stop stop-color="#B48BF9" offset=".859"/><stop stop-color="#B48CF9" offset=".875"/><stop stop-color="#B48CF9" offset="1"/></linearGradient></defs><path fill="#FFF" d="M-129.6 -172.8H1425.6000000000001V1900.8H-129.6z"/><path fill="#FFF" d="M-129.6 -172.8H1425.6000000000001V1900.8H-129.6z"/><g clip-path="url(#a)"><g clip-path="url(#b)"><path fill="url(#c)" d="M 0 0 L 0 1296 L 1296 1296 L 1296 0 Z M 0 0"/></g></g><g clip-path="url(#d)"><g clip-path="url(#e)"><path fill="url(#f)" d="M 270 264.355469 L 270 1031.644531 L 1026 1031.644531 L 1026 264.355469 Z M 270 264.355469"/></g></g></svg>