<svg xmlns="http://www.w3.org/2000/svg" width="1296" viewBox="0 0 1296 1728" height="1728" version="1.0"><defs><clipPath id="a"><path d="M 0 0 L 1204.5 0 L 1204.5 1728 L 0 1728 Z M 0 0"/></clipPath></defs><path fill="#FFF" d="M-129.6 -172.8H1425.6000000000001V1900.8H-129.6z"/><path fill="#FFF" d="M-129.6 -172.8H1425.6000000000001V1900.8H-129.6z"/><g clip-path="url(#a)"><path fill="#231F20" d="M 1089.109375 724.074219 C 1089.109375 727.296875 1090.664062 728.871094 1093.867188 728.871094 C 1087.535156 738.75 1084.382812 747.839844 1084.382812 756.140625 L 1084.382812 765.660156 C 1095.015625 777.113281 1101.1875 792.570312 1102.765625 811.949219 C 1115.808594 828.195312 1125.117188 844.980469 1130.683594 862.425781 L 1135.40625 862.425781 C 1135.40625 854.070312 1138.414062 844.785156 1144.300781 834.496094 C 1134.421875 804.828125 1118.996094 774.140625 1098.019531 742.503906 C 1098.019531 739.355469 1099.597656 737.78125 1102.765625 737.78125 C 1099.597656 732.574219 1098.019531 724.898438 1098.019531 714.628906 C 1092.078125 715.808594 1089.109375 718.957031 1089.109375 724.074219 Z M 1075.472656 857.648438 L 1075.472656 876.0625 C 1075.472656 889.5 1089.109375 915.835938 1116.417969 955.023438 C 1122.753906 955.023438 1125.902344 951.839844 1125.902344 945.503906 L 1125.902344 931.871094 C 1095.855469 882.394531 1079.03125 857.648438 1075.472656 857.648438 Z M 1042.828125 927.09375 L 1038.046875 959.15625 C 1048.734375 959.15625 1056.445312 976.136719 1061.1875 1010.171875 C 1064.355469 1010.996094 1073.699219 1031 1089.109375 1070.167969 L 1093.867188 1070.167969 C 1102.960938 1037.296875 1107.523438 1014.160156 1107.523438 1000.722656 C 1101.582031 999.488281 1080 974.976562 1042.828125 927.09375 Z M 1019.613281 1033.34375 C 1013.726562 1057.5 1010.71875 1075.855469 1010.71875 1088.542969 C 1028.152344 1141.5625 1044.976562 1172.230469 1061.1875 1180.53125 L 1065.933594 1180.53125 C 1065.933594 1171.050781 1070.496094 1151.082031 1079.625 1120.589844 C 1064.195312 1109.15625 1045.761719 1080.042969 1024.394531 1033.34375 Z M 987.578125 1158.003906 C 978.113281 1179.351562 973.371094 1194.5625 973.371094 1203.6875 C 980.851562 1203.6875 990.175781 1220.722656 1001.253906 1254.699219 C 1012.726562 1282.433594 1020.457031 1296.265625 1024.394531 1296.265625 L 1029.152344 1296.265625 C 1038.246094 1252.785156 1042.828125 1229.613281 1042.828125 1226.824219 L 1042.828125 1222.097656 Z M 954.953125 1268.390625 C 954.953125 1277.855469 953.558594 1288.75 950.800781 1301.007812 C 957.121094 1301.007812 964.671875 1321.011719 973.371094 1361.003906 C 988.777344 1370.058594 996.511719 1380.777344 996.511719 1392.996094 L 1006.011719 1392.996094 L 1010.71875 1351.46875 C 987.417969 1325.738281 970.363281 1298.054688 959.695312 1268.390625 Z M 927.644531 1379.363281 L 927.644531 1406.6875 C 927.644531 1423.683594 942.875 1454.566406 973.371094 1499.230469 C 979.703125 1471.546875 984.410156 1457.699219 987.578125 1457.699219 C 974.550781 1441.488281 959.089844 1412.195312 941.296875 1369.898438 L 936.539062 1369.898438 C 930.613281 1371.058594 927.644531 1374.210938 927.644531 1379.363281 Z M 918.15625 105.648438 L 941.296875 165.589844 L 946.042969 165.589844 L 946.042969 151.957031 C 933.386719 121.464844 924.0625 106.058594 918.15625 105.648438 Z M 909.246094 1466.628906 L 904.503906 1499.230469 L 904.503906 1527.160156 C 907.632812 1559.621094 921.523438 1591.882812 946.042969 1623.890625 C 946.042969 1612.457031 949.011719 1603.117188 954.953125 1596.015625 L 954.953125 1582.363281 C 939.132812 1514.691406 925.261719 1480.871094 913.378906 1480.871094 L 913.378906 1466.628906 Z M 899.761719 188.746094 L 899.761719 193.46875 C 899.761719 223.191406 909.011719 244.75 927.644531 258.1875 L 932.402344 258.1875 C 938.328125 258.1875 941.296875 255.023438 941.296875 248.667969 C 941.296875 234.425781 929.039062 214.441406 904.503906 188.746094 Z M 858.183594 1568.746094 L 858.183594 1582.363281 L 899.761719 1674.351562 L 909.246094 1674.351562 L 909.246094 1665.441406 C 890.632812 1639.351562 875.207031 1607.089844 862.945312 1568.746094 Z M 849.253906 230.3125 C 849.253906 237.433594 844.53125 246.753906 835.007812 258.1875 L 835.007812 262.359375 C 835.007812 269.066406 847.304688 299.953125 871.839844 354.902344 L 881.324219 354.902344 C 881.324219 347.421875 887.464844 333.609375 899.761719 313.40625 C 887.859375 313.40625 874.007812 285.65625 858.183594 230.3125 Z M 789.355469 336.542969 C 789.355469 338.871094 801.578125 371.148438 826.113281 433.308594 L 830.300781 433.308594 C 836.636719 433.308594 842.957031 422.574219 849.253906 401.210938 C 823.929688 346.617188 808.503906 318.882812 802.972656 318.132812 C 798.230469 318.132812 793.667969 324.269531 789.355469 336.542969 Z M 779.816406 1582.363281 L 779.816406 1587.101562 C 807.554688 1622.710938 824.359375 1656.546875 830.300781 1688.613281 L 844.53125 1697.523438 C 848.878906 1697.523438 853.441406 1692.941406 858.183594 1683.835938 C 847.105469 1646.6875 828.710938 1609.648438 802.972656 1572.859375 L 789.355469 1572.859375 C 783 1574.09375 779.816406 1577.191406 779.816406 1582.363281 Z M 747.746094 391.746094 C 747.746094 400.046875 743 410.730469 733.515625 423.792969 C 745.023438 423.792969 764.996094 454.640625 793.46875 516.40625 L 798.230469 516.40625 L 807.714844 497.976562 C 776.863281 434.277344 761.433594 398.867188 761.433594 391.746094 Z M 724.605469 493.253906 L 724.605469 497.976562 C 724.605469 516.601562 733.714844 542.691406 751.894531 576.296875 L 756.65625 576.296875 L 770.328125 566.828125 C 761.238281 553.375 748.980469 528.824219 733.515625 493.253906 Z M 696.71875 1559.226562 L 691.960938 1582.363281 C 701.464844 1593.832031 712.34375 1616.769531 724.605469 1651.214844 C 736.863281 1659.160156 743 1669.984375 743 1683.835938 L 761.433594 1683.835938 C 767.359375 1683.835938 770.328125 1680.683594 770.328125 1674.351562 C 770.328125 1663.667969 750.320312 1625.304688 710.359375 1559.226562 Z M 664.648438 530.042969 C 664.648438 545.449219 681.488281 571.605469 715.117188 608.394531 L 719.859375 608.394531 L 678.285156 516.40625 C 673.9375 516.40625 669.390625 520.933594 664.648438 530.042969 Z M 627.246094 1559.226562 L 623.074219 1582.363281 C 638.519531 1605.320312 653.769531 1640.730469 668.800781 1688.613281 L 678.285156 1692.78125 C 687.414062 1692.78125 691.960938 1686.609375 691.960938 1674.351562 C 667.816406 1608.683594 647.824219 1570.265625 632.003906 1559.226562 Z M 618.351562 604.226562 L 627.246094 604.226562 L 650.402344 599.484375 L 650.402344 594.707031 C 650.402344 590.378906 645.839844 585.796875 636.746094 581.074219 C 632.398438 581.074219 626.277344 588.75 618.351562 604.226562 Z M 576.792969 1070.167969 L 576.792969 1083.800781 C 585.886719 1105.9375 590.429688 1119.765625 590.429688 1125.3125 C 596.765625 1125.3125 599.933594 1122.363281 599.933594 1116.421875 L 599.933594 1111.699219 C 587.675781 1093.894531 581.535156 1080.042969 581.535156 1070.167969 Z M 553.636719 1563.949219 C 583.308594 1643.878906 604.910156 1683.835938 618.351562 1683.835938 L 618.351562 1679.09375 C 600.917969 1614.625 583.933594 1576.207031 567.289062 1563.949219 Z M 512.113281 1070.167969 L 512.113281 1074.910156 C 533.429688 1113.273438 544.148438 1134.636719 544.148438 1139.019531 L 548.929688 1139.019531 L 548.929688 1134.832031 C 533.429688 1091.675781 521.171875 1070.167969 512.113281 1070.167969 Z M 456.886719 1074.910156 L 456.886719 1088.542969 C 460.050781 1088.542969 467.765625 1102.375 479.988281 1130.054688 L 488.921875 1130.054688 L 488.921875 1125.3125 C 470.738281 1096.828125 461.589844 1080.042969 461.589844 1074.910156 Z M 401.027344 1088.542969 L 401.027344 1098.046875 C 401.027344 1103.179688 410.371094 1124.5625 428.964844 1162.15625 L 442.640625 1171.605469 C 447.398438 1171.605469 452.140625 1167.09375 456.886719 1158.003906 L 456.886719 1153.210938 L 428.964844 1106.9375 C 423.023438 1106.9375 420.070312 1097.652344 420.070312 1079.023438 L 410.566406 1079.023438 C 404.230469 1080.242188 401.027344 1083.410156 401.027344 1088.542969 Z M 327.453125 1065.390625 C 327.453125 1070.523438 341.308594 1099.816406 369.027344 1153.210938 C 372.160156 1158.398438 373.734375 1164.5 373.734375 1171.605469 L 387.425781 1171.605469 C 365.269531 1100.800781 346.835938 1065.390625 332.214844 1065.390625 Z M 277.023438 1074.910156 C 277.023438 1077.648438 275.429688 1079.023438 272.242188 1079.023438 C 293.628906 1139.96875 309.058594 1173.824219 318.558594 1180.53125 L 332.214844 1180.53125 L 332.214844 1171.605469 C 323.105469 1128.894531 309.253906 1096.632812 290.675781 1074.910156 Z M 212.304688 1065.390625 L 212.304688 1070.167969 C 228.519531 1140.988281 242.375 1176.363281 253.84375 1176.363281 L 267.5 1176.363281 L 267.5 1171.605469 C 247.3125 1100.800781 228.914062 1065.390625 212.304688 1065.390625 Z M 165.988281 1065.390625 C 162.820312 1082.425781 161.246094 1094.679688 161.246094 1102.230469 C 179.824219 1137.390625 189.128906 1160.5625 189.128906 1171.605469 L 212.304688 1171.605469 C 187.753906 1110.714844 175.492188 1075.300781 175.492188 1065.390625 Z M 50.804688 742.503906 L 73.390625 973.382812 L 73.390625 982.3125 C 73.390625 991.417969 87.226562 999.132812 114.910156 1005.464844 L 170.730469 1005.464844 L 179.628906 1010.171875 L 179.628906 1005.464844 C 179.628906 1010.171875 264.332031 1014.75 433.746094 1019.082031 L 433.746094 1014.914062 L 442.640625 1019.082031 L 452.140625 1019.082031 C 467.570312 1019.082031 490.710938 1020.65625 521.601562 1023.859375 L 521.601562 1019.082031 C 524.339844 1019.082031 525.714844 1020.65625 525.714844 1023.859375 C 532.085938 1023.859375 535.238281 1022.230469 535.238281 1019.082031 L 581.535156 1023.859375 L 618.351562 1023.859375 C 625.078125 1023.859375 631.21875 1025.453125 636.746094 1028.601562 C 642.691406 1025.453125 647.234375 1023.859375 650.402344 1023.859375 C 662.664062 1037.707031 668.800781 1045.386719 668.800781 1046.976562 L 548.929688 1504.007812 L 558.378906 1508.195312 L 576.792969 1508.195312 C 579.945312 1508.195312 581.535156 1506.761719 581.535156 1504.007812 L 590.429688 1508.195312 L 618.351562 1508.195312 C 621.519531 1508.195312 623.074219 1506.761719 623.074219 1504.007812 L 632.003906 1508.195312 C 638.359375 1508.195312 641.507812 1505.1875 641.507812 1499.230469 C 693.355469 1505.1875 759.449219 1509.769531 839.75 1512.917969 C 876.582031 1388.667969 899.761719 1291.757812 909.246094 1222.097656 C 918.355469 1198.730469 936.753906 1138.824219 964.4375 1042.234375 L 959.695312 1042.234375 C 975.125 993.601562 986.003906 953.609375 992.324219 922.367188 L 987.578125 922.367188 C 1005.816406 862.570312 1028.777344 771.816406 1056.445312 649.925781 C 1047.355469 649.925781 1042.828125 648.53125 1042.828125 645.738281 L 1019.613281 649.925781 L 964.4375 649.925781 C 933.585938 649.925781 918.15625 646.957031 918.15625 641.050781 L 909.246094 645.738281 L 890.828125 641.050781 L 835.007812 649.925781 C 818.792969 647.152344 803.5625 645.738281 789.355469 645.738281 L 770.328125 649.925781 L 761.433594 645.738281 L 751.894531 649.925781 C 730.546875 644.003906 712.148438 641.050781 696.71875 641.050781 L 548.929688 641.050781 C 568.667969 613.335938 591.863281 570.195312 618.351562 511.609375 C 630.234375 496.617188 664.058594 441.203125 719.859375 345.4375 C 770.492188 276.617188 822.75 187.347656 876.582031 77.769531 L 867.6875 73.601562 C 864.519531 73.601562 862.945312 74.960938 862.945312 77.769531 L 839.75 73.601562 L 798.230469 73.601562 C 778.4375 73.601562 756.871094 70.453125 733.515625 64.101562 L 733.515625 68.878906 C 705.8125 65.710938 691.960938 62.507812 691.960938 59.339844 C 688.773438 59.339844 687.21875 60.933594 687.21875 64.101562 L 664.648438 59.339844 C 656.722656 59.339844 644.265625 60.933594 627.246094 64.101562 L 604.675781 59.339844 C 579.746094 61.328125 567.289062 64.496094 567.289062 68.878906 C 557.394531 62.507812 548.300781 59.339844 539.996094 59.339844 L 535.238281 59.339844 C 496.0625 111.195312 456.0625 158.882812 415.308594 202.414062 C 368.601562 264.503906 325.484375 316.949219 285.917969 359.699219 C 285.917969 364.832031 245.933594 415.453125 165.988281 511.609375 C 165.988281 515.566406 156.683594 527.859375 138.105469 548.453125 L 73.390625 654.632812 C 58.320312 665.742188 50.804688 695.035156 50.804688 742.503906 Z M 525.714844 -0.582031 C 532.875 -0.582031 562.136719 4.140625 613.605469 13.660156 L 673.578125 13.660156 L 683.066406 17.847656 L 683.066406 13.660156 L 691.960938 17.847656 L 719.859375 17.847656 C 723.027344 17.847656 724.605469 16.414062 724.605469 13.660156 L 733.515625 17.847656 L 738.257812 17.847656 C 741.410156 17.847656 743 16.414062 743 13.660156 C 764.386719 22.765625 784.378906 27.3125 802.972656 27.3125 C 804.546875 27.3125 810.6875 25.71875 821.371094 22.550781 L 821.371094 27.3125 L 830.300781 22.550781 L 849.253906 22.550781 C 870.640625 28.886719 882.902344 32.089844 886.085938 32.089844 L 936.539062 32.089844 L 969.183594 124.078125 C 986.632812 167.164062 1001.859375 193.253906 1014.90625 202.414062 C 1014.90625 208.730469 1016.484375 211.882812 1019.613281 211.882812 C 1019.613281 220.238281 1001.253906 250.871094 964.4375 303.871094 C 911.394531 394.089844 862.140625 488.0625 816.609375 585.796875 C 813.445312 585.796875 811.867188 587.226562 811.867188 589.964844 L 811.867188 599.484375 L 886.085938 599.484375 C 892.832031 599.484375 898.972656 597.910156 904.503906 594.707031 C 929.433594 598.660156 951 603.242188 969.183594 608.394531 C 995.328125 605.585938 1016.875 604.226562 1033.898438 604.226562 L 1061.1875 604.226562 L 1084.382812 599.484375 C 1117.601562 642.179688 1142.117188 700.582031 1157.976562 774.550781 C 1166.691406 774.550781 1177.535156 797.707031 1190.582031 844.03125 C 1193.785156 844.03125 1198.332031 850.167969 1204.273438 862.425781 C 1202.289062 884.167969 1188.453125 928.667969 1162.734375 995.929688 C 1135.015625 1117.03125 1110.476562 1204.902344 1089.109375 1259.476562 L 1029.152344 1485.59375 C 1025.984375 1485.59375 1024.394531 1488.582031 1024.394531 1494.507812 L 1029.152344 1494.507812 C 1016.875 1519.84375 1001.449219 1579.820312 982.835938 1674.351562 C 972.941406 1714.308594 963.652344 1734.3125 954.953125 1734.3125 L 954.953125 1730.179688 L 946.042969 1734.3125 L 913.378906 1734.3125 C 910.605469 1734.3125 909.246094 1732.914062 909.246094 1730.179688 C 896.96875 1732.523438 890.828125 1735.457031 890.828125 1739.015625 C 878.160156 1733.113281 868.871094 1730.179688 862.945312 1730.179688 L 835.007812 1734.3125 C 835.007812 1731.539062 833.453125 1730.179688 830.300781 1730.179688 L 830.300781 1734.3125 L 821.371094 1730.179688 C 815.464844 1732.914062 810.882812 1734.3125 807.714844 1734.3125 C 804.546875 1734.3125 802.972656 1732.914062 802.972656 1730.179688 C 773.695312 1736.082031 755.261719 1739.015625 747.746094 1739.015625 C 741.410156 1735.921875 736.703125 1734.3125 733.515625 1734.3125 L 733.515625 1739.015625 C 727.574219 1735.921875 723.027344 1734.3125 719.859375 1734.3125 C 707.207031 1734.3125 694.894531 1735.921875 683.066406 1739.015625 C 662.894531 1735.921875 642.886719 1734.3125 623.074219 1734.3125 L 576.792969 1734.3125 C 555.03125 1697.917969 544.148438 1677.910156 544.148438 1674.351562 L 484.175781 1504.007812 C 494.863281 1504.007812 519.578125 1422.503906 558.378906 1259.476562 C 561.5625 1259.476562 563.136719 1250.191406 563.136719 1231.5625 L 553.636719 1236.34375 C 546.90625 1229.988281 530.066406 1225.230469 503.203125 1222.097656 C 496.847656 1225.230469 492.085938 1226.824219 488.921875 1226.824219 C 464.402344 1224.835938 452.140625 1221.902344 452.140625 1217.929688 C 406.613281 1223.886719 378.890625 1226.824219 369.027344 1226.824219 L 313.800781 1217.929688 C 279.402344 1220.722656 248.492188 1222.097656 221.183594 1222.097656 L 184.386719 1222.097656 L 156.488281 1226.824219 C 145.410156 1226.824219 122.480469 1186.886719 87.621094 1106.9375 C 47.671875 1061.453125 27.664062 1021.480469 27.664062 987.035156 C 27.664062 962.109375 22.921875 931.261719 13.417969 894.4375 L 18.160156 894.4375 C 9.859375 852.101562 3.738281 775.339844 -0.21875 664.167969 C 42.894531 608.753906 72.210938 565.648438 87.621094 534.820312 L 290.675781 280.734375 C 426.03125 125.242188 493.679688 43.738281 493.679688 36.207031 L 525.714844 -0.582031"/></g><path fill="#FFF" d="M 50.804688 742.503906 L 73.390625 973.382812 L 73.390625 982.3125 C 73.390625 991.417969 87.226562 999.132812 114.910156 1005.464844 L 170.730469 1005.464844 L 179.628906 1010.171875 L 179.628906 1005.464844 C 179.628906 1010.171875 264.332031 1014.75 433.746094 1019.082031 L 433.746094 1014.914062 L 442.640625 1019.082031 L 452.140625 1019.082031 C 467.570312 1019.082031 490.710938 1020.65625 521.601562 1023.859375 L 521.601562 1019.082031 C 524.339844 1019.082031 525.714844 1020.65625 525.714844 1023.859375 C 532.085938 1023.859375 535.238281 1022.230469 535.238281 1019.082031 L 581.535156 1023.859375 L 618.351562 1023.859375 C 625.078125 1023.859375 631.21875 1025.453125 636.746094 1028.601562 C 642.691406 1025.453125 647.234375 1023.859375 650.402344 1023.859375 C 662.664062 1037.707031 668.800781 1045.386719 668.800781 1046.976562 L 548.929688 1504.007812 L 558.378906 1508.195312 L 576.792969 1508.195312 C 579.945312 1508.195312 581.535156 1506.761719 581.535156 1504.007812 L 590.429688 1508.195312 L 618.351562 1508.195312 C 621.519531 1508.195312 623.074219 1506.761719 623.074219 1504.007812 L 632.003906 1508.195312 C 638.359375 1508.195312 641.507812 1505.1875 641.507812 1499.230469 C 693.355469 1505.1875 759.449219 1509.769531 839.75 1512.917969 C 876.582031 1388.667969 899.761719 1291.757812 909.246094 1222.097656 C 918.355469 1198.730469 936.753906 1138.824219 964.4375 1042.234375 L 959.695312 1042.234375 C 975.125 993.601562 986.003906 953.609375 992.324219 922.367188 L 987.578125 922.367188 C 1005.816406 862.570312 1028.777344 771.816406 1056.445312 649.925781 C 1047.355469 649.925781 1042.828125 648.53125 1042.828125 645.738281 L 1019.613281 649.925781 L 964.4375 649.925781 C 933.585938 649.925781 918.15625 646.957031 918.15625 641.050781 L 909.246094 645.738281 L 890.828125 641.050781 L 835.007812 649.925781 C 818.792969 647.152344 803.5625 645.738281 789.355469 645.738281 L 770.328125 649.925781 L 761.433594 645.738281 L 751.894531 649.925781 C 730.546875 644.003906 712.148438 641.050781 696.71875 641.050781 L 548.929688 641.050781 C 568.667969 613.335938 591.863281 570.195312 618.351562 511.609375 C 630.234375 496.617188 664.058594 441.203125 719.859375 345.4375 C 770.492188 276.617188 822.75 187.347656 876.582031 77.769531 L 867.6875 73.601562 C 864.519531 73.601562 862.945312 74.960938 862.945312 77.769531 L 839.75 73.601562 L 798.230469 73.601562 C 778.4375 73.601562 756.871094 70.453125 733.515625 64.101562 L 733.515625 68.878906 C 705.8125 65.710938 691.960938 62.507812 691.960938 59.339844 C 688.773438 59.339844 687.21875 60.933594 687.21875 64.101562 L 664.648438 59.339844 C 656.722656 59.339844 644.265625 60.933594 627.246094 64.101562 L 604.675781 59.339844 C 579.746094 61.328125 567.289062 64.496094 567.289062 68.878906 C 557.394531 62.507812 548.300781 59.339844 539.996094 59.339844 L 535.238281 59.339844 C 496.0625 111.195312 456.0625 158.882812 415.308594 202.414062 C 368.601562 264.503906 325.484375 316.949219 285.917969 359.699219 C 285.917969 364.832031 245.933594 415.453125 165.988281 511.609375 C 165.988281 515.566406 156.683594 527.859375 138.105469 548.453125 L 73.390625 654.632812 C 58.320312 665.742188 50.804688 695.035156 50.804688 742.503906"/><path fill="#FFF" d="M 165.988281 1065.390625 C 162.820312 1082.425781 161.246094 1094.679688 161.246094 1102.230469 C 179.824219 1137.390625 189.128906 1160.5625 189.128906 1171.605469 L 212.304688 1171.605469 C 187.753906 1110.714844 175.492188 1075.300781 175.492188 1065.390625 L 165.988281 1065.390625"/><path fill="#FFF" d="M 212.304688 1065.390625 L 212.304688 1070.167969 C 228.519531 1140.988281 242.375 1176.363281 253.84375 1176.363281 L 267.5 1176.363281 L 267.5 1171.605469 C 247.3125 1100.800781 228.914062 1065.390625 212.304688 1065.390625"/><path fill="#FFF" d="M 277.023438 1074.910156 C 277.023438 1077.648438 275.429688 1079.023438 272.242188 1079.023438 C 293.628906 1139.96875 309.058594 1173.824219 318.558594 1180.53125 L 332.214844 1180.53125 L 332.214844 1171.605469 C 323.105469 1128.894531 309.253906 1096.632812 290.675781 1074.910156 L 277.023438 1074.910156"/><path fill="#FFF" d="M 327.453125 1065.390625 C 327.453125 1070.523438 341.308594 1099.816406 369.027344 1153.210938 C 372.160156 1158.398438 373.734375 1164.5 373.734375 1171.605469 L 387.425781 1171.605469 C 365.269531 1100.800781 346.835938 1065.390625 332.214844 1065.390625 L 327.453125 1065.390625"/><path fill="#FFF" d="M 401.027344 1088.542969 L 401.027344 1098.046875 C 401.027344 1103.179688 410.371094 1124.5625 428.964844 1162.15625 L 442.640625 1171.605469 C 447.398438 1171.605469 452.140625 1167.09375 456.886719 1158.003906 L 456.886719 1153.210938 L 428.964844 1106.9375 C 423.023438 1106.9375 420.070312 1097.652344 420.070312 1079.023438 L 410.566406 1079.023438 C 404.230469 1080.242188 401.027344 1083.410156 401.027344 1088.542969"/><path fill="#FFF" d="M 456.886719 1074.910156 L 456.886719 1088.542969 C 460.050781 1088.542969 467.765625 1102.375 479.988281 1130.054688 L 488.921875 1130.054688 L 488.921875 1125.3125 C 470.738281 1096.828125 461.589844 1080.042969 461.589844 1074.910156 L 456.886719 1074.910156"/><path fill="#FFF" d="M 512.113281 1070.167969 L 512.113281 1074.910156 C 533.429688 1113.273438 544.148438 1134.636719 544.148438 1139.019531 L 548.929688 1139.019531 L 548.929688 1134.832031 C 533.429688 1091.675781 521.171875 1070.167969 512.113281 1070.167969"/><path fill="#FFF" d="M 553.636719 1563.949219 C 583.308594 1643.878906 604.910156 1683.835938 618.351562 1683.835938 L 618.351562 1679.09375 C 600.917969 1614.625 583.933594 1576.207031 567.289062 1563.949219 L 553.636719 1563.949219"/><path fill="#FFF" d="M 576.792969 1070.167969 L 576.792969 1083.800781 C 585.886719 1105.9375 590.429688 1119.765625 590.429688 1125.3125 C 596.765625 1125.3125 599.933594 1122.363281 599.933594 1116.421875 L 599.933594 1111.699219 C 587.675781 1093.894531 581.535156 1080.042969 581.535156 1070.167969 L 576.792969 1070.167969"/><path fill="#FFF" d="M 618.351562 604.226562 L 627.246094 604.226562 L 650.402344 599.484375 L 650.402344 594.707031 C 650.402344 590.378906 645.839844 585.796875 636.746094 581.074219 C 632.398438 581.074219 626.277344 588.75 618.351562 604.226562"/><path fill="#FFF" d="M 627.246094 1559.226562 L 623.074219 1582.363281 C 638.519531 1605.320312 653.769531 1640.730469 668.800781 1688.613281 L 678.285156 1692.78125 C 687.414062 1692.78125 691.960938 1686.609375 691.960938 1674.351562 C 667.816406 1608.683594 647.824219 1570.265625 632.003906 1559.226562 L 627.246094 1559.226562"/><path fill="#FFF" d="M 664.648438 530.042969 C 664.648438 545.449219 681.488281 571.605469 715.117188 608.394531 L 719.859375 608.394531 L 678.285156 516.40625 C 673.9375 516.40625 669.390625 520.933594 664.648438 530.042969"/><path fill="#FFF" d="M 696.71875 1559.226562 L 691.960938 1582.363281 C 701.464844 1593.832031 712.34375 1616.769531 724.605469 1651.214844 C 736.863281 1659.160156 743 1669.984375 743 1683.835938 L 761.433594 1683.835938 C 767.359375 1683.835938 770.328125 1680.683594 770.328125 1674.351562 C 770.328125 1663.667969 750.320312 1625.304688 710.359375 1559.226562 L 696.71875 1559.226562"/><path fill="#FFF" d="M 724.605469 493.253906 L 724.605469 497.976562 C 724.605469 516.601562 733.714844 542.691406 751.894531 576.296875 L 756.65625 576.296875 L 770.328125 566.828125 C 761.238281 553.375 748.980469 528.824219 733.515625 493.253906 L 724.605469 493.253906"/><path fill="#FFF" d="M 747.746094 391.746094 C 747.746094 400.046875 743 410.730469 733.515625 423.792969 C 745.023438 423.792969 764.996094 454.640625 793.46875 516.40625 L 798.230469 516.40625 L 807.714844 497.976562 C 776.863281 434.277344 761.433594 398.867188 761.433594 391.746094 L 747.746094 391.746094"/><path fill="#FFF" d="M 779.816406 1582.363281 L 779.816406 1587.101562 C 807.554688 1622.710938 824.359375 1656.546875 830.300781 1688.613281 L 844.53125 1697.523438 C 848.878906 1697.523438 853.441406 1692.941406 858.183594 1683.835938 C 847.105469 1646.6875 828.710938 1609.648438 802.972656 1572.859375 L 789.355469 1572.859375 C 783 1574.09375 779.816406 1577.191406 779.816406 1582.363281"/><path fill="#FFF" d="M 789.355469 336.542969 C 789.355469 338.871094 801.578125 371.148438 826.113281 433.308594 L 830.300781 433.308594 C 836.636719 433.308594 842.957031 422.574219 849.253906 401.210938 C 823.929688 346.617188 808.503906 318.882812 802.972656 318.132812 C 798.230469 318.132812 793.667969 324.269531 789.355469 336.542969"/><path fill="#FFF" d="M 849.253906 230.3125 C 849.253906 237.433594 844.53125 246.753906 835.007812 258.1875 L 835.007812 262.359375 C 835.007812 269.066406 847.304688 299.953125 871.839844 354.902344 L 881.324219 354.902344 C 881.324219 347.421875 887.464844 333.609375 899.761719 313.40625 C 887.859375 313.40625 874.007812 285.65625 858.183594 230.3125 L 849.253906 230.3125"/><path fill="#FFF" d="M 858.183594 1568.746094 L 858.183594 1582.363281 L 899.761719 1674.351562 L 909.246094 1674.351562 L 909.246094 1665.441406 C 890.632812 1639.351562 875.207031 1607.089844 862.945312 1568.746094 L 858.183594 1568.746094"/><path fill="#FFF" d="M 899.761719 188.746094 L 899.761719 193.46875 C 899.761719 223.191406 909.011719 244.75 927.644531 258.1875 L 932.402344 258.1875 C 938.328125 258.1875 941.296875 255.023438 941.296875 248.667969 C 941.296875 234.425781 929.039062 214.441406 904.503906 188.746094 L 899.761719 188.746094"/><path fill="#FFF" d="M 909.246094 1466.628906 L 904.503906 1499.230469 L 904.503906 1527.160156 C 907.632812 1559.621094 921.523438 1591.882812 946.042969 1623.890625 C 946.042969 1612.457031 949.011719 1603.117188 954.953125 1596.015625 L 954.953125 1582.363281 C 939.132812 1514.691406 925.261719 1480.871094 913.378906 1480.871094 L 913.378906 1466.628906 L 909.246094 1466.628906"/><path fill="#FFF" d="M 918.15625 105.648438 L 941.296875 165.589844 L 946.042969 165.589844 L 946.042969 151.957031 C 933.386719 121.464844 924.0625 106.058594 918.15625 105.648438"/><path fill="#FFF" d="M 927.644531 1379.363281 L 927.644531 1406.6875 C 927.644531 1423.683594 942.875 1454.566406 973.371094 1499.230469 C 979.703125 1471.546875 984.410156 1457.699219 987.578125 1457.699219 C 974.550781 1441.488281 959.089844 1412.195312 941.296875 1369.898438 L 936.539062 1369.898438 C 930.613281 1371.058594 927.644531 1374.210938 927.644531 1379.363281"/><path fill="#FFF" d="M 954.953125 1268.390625 C 954.953125 1277.855469 953.558594 1288.75 950.800781 1301.007812 C 957.121094 1301.007812 964.671875 1321.011719 973.371094 1361.003906 C 988.777344 1370.058594 996.511719 1380.777344 996.511719 1392.996094 L 1006.011719 1392.996094 L 1010.71875 1351.46875 C 987.417969 1325.738281 970.363281 1298.054688 959.695312 1268.390625 L 954.953125 1268.390625"/><path fill="#FFF" d="M 987.578125 1158.003906 C 978.113281 1179.351562 973.371094 1194.5625 973.371094 1203.6875 C 980.851562 1203.6875 990.175781 1220.722656 1001.253906 1254.699219 C 1012.726562 1282.433594 1020.457031 1296.265625 1024.394531 1296.265625 L 1029.152344 1296.265625 C 1038.246094 1252.785156 1042.828125 1229.613281 1042.828125 1226.824219 L 1042.828125 1222.097656 L 987.578125 1158.003906"/><path fill="#FFF" d="M 1019.613281 1033.34375 C 1013.726562 1057.5 1010.71875 1075.855469 1010.71875 1088.542969 C 1028.152344 1141.5625 1044.976562 1172.230469 1061.1875 1180.53125 L 1065.933594 1180.53125 C 1065.933594 1171.050781 1070.496094 1151.082031 1079.625 1120.589844 C 1064.195312 1109.15625 1045.761719 1080.042969 1024.394531 1033.34375 L 1019.613281 1033.34375"/><path fill="#FFF" d="M 1042.828125 927.09375 L 1038.046875 959.15625 C 1048.734375 959.15625 1056.445312 976.136719 1061.1875 1010.171875 C 1064.355469 1010.996094 1073.699219 1031 1089.109375 1070.167969 L 1093.867188 1070.167969 C 1102.960938 1037.296875 1107.523438 1014.160156 1107.523438 1000.722656 C 1101.582031 999.488281 1080 974.976562 1042.828125 927.09375"/><path fill="#FFF" d="M 1075.472656 857.648438 L 1075.472656 876.0625 C 1075.472656 889.5 1089.109375 915.835938 1116.417969 955.023438 C 1122.753906 955.023438 1125.902344 951.839844 1125.902344 945.503906 L 1125.902344 931.871094 C 1095.855469 882.394531 1079.03125 857.648438 1075.472656 857.648438"/><path fill="#FFF" d="M 1089.109375 724.074219 C 1089.109375 727.296875 1090.664062 728.871094 1093.867188 728.871094 C 1087.535156 738.75 1084.382812 747.839844 1084.382812 756.140625 L 1084.382812 765.660156 C 1095.015625 777.113281 1101.1875 792.570312 1102.765625 811.949219 C 1115.808594 828.195312 1125.117188 844.980469 1130.683594 862.425781 L 1135.40625 862.425781 C 1135.40625 854.070312 1138.414062 844.785156 1144.300781 834.496094 C 1134.421875 804.828125 1118.996094 774.140625 1098.019531 742.503906 C 1098.019531 739.355469 1099.597656 737.78125 1102.765625 737.78125 C 1099.597656 732.574219 1098.019531 724.898438 1098.019531 714.628906 C 1092.078125 715.808594 1089.109375 718.957031 1089.109375 724.074219"/></svg>