<svg xmlns="http://www.w3.org/2000/svg" width="1296" viewBox="0 0 1296 1728" height="1728" version="1.0"><defs><clipPath id="a"><path d="M 0 0 L 1222.5 0 L 1222.5 1728 L 0 1728 Z M 0 0"/></clipPath></defs><path fill="#FFF" d="M-129.6 -172.8H1425.6000000000001V1900.8H-129.6z"/><path fill="#FFF" d="M-129.6 -172.8H1425.6000000000001V1900.8H-129.6z"/><g clip-path="url(#a)"><path fill="#231F20" d="M 748.390625 1018.207031 C 753.992188 1047.71875 778.621094 1078.285156 822.269531 1110.027344 L 831.261719 1110.027344 L 831.261719 1105.566406 C 831.261719 1086.117188 819.675781 1067.304688 796.554688 1049.050781 C 796.554688 1035.546875 780.46875 1025.292969 748.390625 1018.207031 Z M 739.96875 1083.679688 C 739.96875 1088.207031 736.992188 1101.226562 731.007812 1122.90625 C 737.355469 1122.90625 757.695312 1144.707031 792.039062 1188.378906 C 799.890625 1188.378906 808.660156 1173.824219 818.378906 1144.707031 L 748.390625 1083.679688 Z M 709.167969 1153.128906 C 709.167969 1159.074219 690.316406 1175.152344 652.632812 1201.242188 L 652.632812 1218.601562 L 709.167969 1244.898438 L 718.144531 1240.417969 C 722.984375 1243.410156 728.777344 1244.898438 735.503906 1244.898438 L 765.734375 1210.199219 L 765.734375 1205.71875 C 745.605469 1181.101562 726.738281 1163.554688 709.167969 1153.128906 Z M 644.246094 531.230469 C 646.839844 542.761719 652.632812 548.574219 661.609375 548.574219 C 684.730469 548.574219 702.09375 542.761719 713.664062 531.230469 L 722.640625 535.140625 C 731.960938 529.554688 740.519531 526.753906 748.390625 526.753906 L 748.390625 531.230469 C 751.398438 528.242188 773.1875 525.265625 813.863281 522.277344 C 813.863281 525.265625 815.386719 526.753906 818.378906 526.753906 L 818.378906 522.277344 C 818.378906 515.550781 800.808594 508.289062 765.734375 500.457031 L 765.734375 504.933594 C 757.140625 501.910156 752.867188 499.125 752.867188 496.53125 Z M 569.761719 553.050781 C 569.761719 557.164062 574.257812 561.488281 583.214844 565.914062 C 583.214844 562.972656 584.683594 561.488281 587.675781 561.488281 C 587.675781 565.566406 591.984375 569.820312 600.5625 574.367188 L 605.039062 574.367188 L 635.269531 570.390625 C 635.269531 565.914062 626.5 558.652344 608.964844 548.574219 L 591.585938 548.574219 Z M 513.210938 583.324219 L 556.910156 618.003906 L 561.371094 618.003906 C 561.371094 613.527344 564.175781 607.734375 569.761719 600.664062 C 552.222656 583.097656 537.871094 574.367188 526.648438 574.367188 L 522.167969 574.367188 C 516.21875 575.421875 513.210938 578.429688 513.210938 583.324219 Z M 509.316406 1044.503906 L 509.316406 1049.050781 C 514.902344 1049.050781 521.976562 1056.308594 530.574219 1070.796875 C 555.597656 1085.355469 571.644531 1092.6875 578.734375 1092.6875 L 630.789062 1127.386719 C 628.179688 1132.988281 626.863281 1137.308594 626.863281 1140.246094 C 629.492188 1151.796875 638.070312 1157.605469 652.632812 1157.605469 C 668.320312 1141.925781 681.375 1120.261719 691.839844 1092.6875 C 697.804688 1092.6875 702.09375 1076.609375 704.6875 1044.503906 C 695.402344 995.261719 679.507812 970.644531 657.128906 970.644531 L 648.136719 970.644531 C 608.964844 975.882812 562.6875 1000.503906 509.316406 1044.503906 Z M 509.316406 618.003906 L 509.316406 639.839844 C 510.042969 645.789062 512.828125 648.777344 517.707031 648.777344 L 526.648438 635.34375 L 526.648438 626.960938 C 522.167969 626.960938 516.390625 623.96875 509.316406 618.003906 Z M 321.746094 1488.410156 C 324.707031 1499.957031 333.472656 1505.769531 348.050781 1505.769531 C 343.574219 1494.203125 339.265625 1488.410156 335.167969 1488.410156 Z M 256.773438 1405.5625 C 256.773438 1418.960938 275.625 1433.570312 313.308594 1449.25 L 313.308594 1444.773438 C 313.308594 1437.285156 295.773438 1424.199219 260.664062 1405.5625 Z M 213.125 1266.765625 L 213.125 1275.117188 C 217.207031 1275.117188 240.34375 1288.1875 282.523438 1314.328125 C 326.210938 1291.179688 379.960938 1257.8125 443.773438 1214.121094 C 525.160156 1167.53125 565.851562 1142.839844 565.851562 1140.246094 L 565.851562 1135.769531 L 491.921875 1096.558594 L 478.515625 1096.558594 C 418.421875 1132.761719 385.007812 1156.117188 378.28125 1166.542969 C 341.324219 1183.347656 312.390625 1203.699219 291.484375 1227.523438 C 250.808594 1238.378906 230.46875 1249.980469 230.46875 1262.308594 Z M 204.132812 1305.925781 L 204.132812 1318.804688 C 207.882812 1318.804688 215.148438 1327.554688 225.957031 1345.121094 L 247.816406 1357.964844 C 247.816406 1354.957031 249.320312 1353.503906 252.296875 1353.503906 C 252.296875 1347.921875 236.246094 1332.03125 204.132812 1305.925781 Z M 887.796875 156.773438 C 884.804688 156.773438 883.335938 155.285156 883.335938 152.296875 C 834.410156 152.296875 699.480469 188.671875 478.515625 261.40625 C 369.515625 296.15625 279.550781 320.773438 208.609375 335.316406 C 191.4375 347.277344 182.859375 354.539062 182.859375 357.132812 C 197.042969 506.042969 209.925781 591.5 221.496094 613.527344 L 221.496094 618.003906 L 217.605469 626.960938 C 226.179688 657.578125 236.246094 718.382812 247.816406 809.425781 L 243.355469 818.398438 C 251.535156 837.054688 260.320312 903.648438 269.660156 1018.207031 C 283.476562 1058.144531 293.542969 1097.300781 299.886719 1135.769531 L 304.351562 1135.769531 C 342.449219 1101.089844 397.703125 1060.582031 470.078125 1014.28125 C 506.292969 979.601562 574.429688 943.171875 674.476562 905.136719 C 732.324219 892.445312 774.140625 897.289062 799.890625 919.675781 C 828.234375 932.746094 853.261719 977.371094 874.914062 1053.457031 C 871.9375 1091.164062 870.433594 1121.574219 870.433594 1144.707031 L 870.433594 1157.605469 C 840.945312 1241.921875 807.535156 1284.109375 770.199219 1284.109375 L 757.332031 1292.527344 L 709.167969 1292.527344 C 662.523438 1283.140625 633.59375 1270.070312 622.386719 1253.28125 C 602.636719 1227.175781 589.542969 1214.121094 583.214844 1214.121094 C 586.191406 1208.519531 587.675781 1204.25 587.675781 1201.242188 C 584.683594 1195.640625 583.214844 1191.371094 583.214844 1188.378906 L 569.761719 1188.378906 C 488.773438 1236.496094 427.914062 1275.671875 387.222656 1305.925781 C 353.257812 1332.03125 331.433594 1345.121094 321.746094 1345.121094 L 321.746094 1349.027344 C 321.746094 1354.957031 326.210938 1357.964844 335.167969 1357.964844 L 335.167969 1388.253906 C 374.355469 1459.519531 410.550781 1511.699219 443.773438 1544.980469 C 488.21875 1599.058594 568.101562 1641.226562 683.398438 1671.429688 L 739.96875 1671.429688 C 746.332031 1671.429688 752.125 1672.761719 757.332031 1675.355469 C 762.191406 1672.761719 767.984375 1671.429688 774.710938 1671.429688 C 777.667969 1671.429688 781.972656 1672.761719 787.558594 1675.355469 C 792.785156 1672.761719 798.59375 1671.429688 804.921875 1671.429688 L 804.921875 1675.355469 C 857.21875 1666.050781 899.367188 1652.980469 931.445312 1636.175781 C 953.132812 1613.027344 974.769531 1597.175781 996.402344 1588.617188 C 996.402344 1584.105469 1016.773438 1562.285156 1057.449219 1523.109375 C 1121.28125 1421.277344 1153.207031 1335.785156 1153.207031 1266.765625 C 1159.171875 1266.765625 1162.164062 1260.769531 1162.164062 1248.855469 L 1157.6875 1248.855469 L 1166.660156 1231.445312 L 1162.164062 1231.445312 C 1165.140625 1225.863281 1166.660156 1221.589844 1166.660156 1218.601562 C 1166.660156 1215.644531 1165.140625 1214.121094 1162.164062 1214.121094 L 1175.050781 1149.203125 L 1170.570312 1149.203125 L 1179.511719 1118.410156 C 1179.511719 1116.542969 1175.222656 1083.175781 1166.660156 1018.207031 L 1170.570312 1009.820312 C 1154.882812 909.460938 1134.546875 841.132812 1109.523438 804.949219 C 1097.953125 785.1875 1083.582031 750.472656 1066.425781 700.816406 L 1013.78125 635.34375 L 957.230469 596.1875 C 901.976562 581.644531 868.753906 574.367188 857.566406 574.367188 L 857.566406 578.792969 L 848.609375 574.367188 L 796.554688 574.367188 C 750.621094 574.367188 709.929688 584.585938 674.476562 605.140625 C 665.535156 605.140625 642.359375 618.210938 605.039062 644.300781 C 582.265625 649.140625 554.644531 679.570312 522.167969 735.515625 C 513.589844 735.515625 506.292969 748.605469 500.34375 774.746094 L 495.863281 774.746094 C 495.863281 763.90625 493.0625 755.15625 487.476562 748.429688 L 487.476562 744.488281 C 478.515625 654.949219 474.003906 588.144531 474.003906 544.144531 C 471.410156 544.144531 470.078125 542.625 470.078125 539.617188 C 585.808594 493.367188 683.054688 461.472656 761.828125 443.941406 C 811.460938 424.492188 885.375 404.195312 983.554688 382.894531 L 992.492188 370.011719 C 974.957031 301.34375 966.191406 259.363281 966.191406 244.0625 L 970.6875 244.0625 L 953.304688 152.296875 L 957.230469 152.296875 C 954.621094 147.4375 953.304688 141.644531 953.304688 134.9375 C 909.636719 145.726562 887.796875 153.039062 887.796875 156.773438 Z M 369.875 165.710938 L 369.875 161.25 C 315.746094 175.789062 237.351562 193.132812 134.695312 213.289062 L 125.738281 208.796875 C 113.441406 217.769531 91.789062 225.082031 60.800781 230.613281 L 60.800781 235.109375 C 105.972656 273.558594 133.605469 293.90625 143.6875 296.15625 C 144.398438 290.207031 147.234375 287.199219 152.078125 287.199219 L 164.960938 287.199219 L 186.785156 291.660156 L 186.785156 287.199219 L 195.742188 291.660156 C 298.78125 259.933594 371.363281 239.636719 413.542969 230.613281 C 416.535156 225.789062 460.03125 212.71875 544.007812 191.453125 C 628.371094 159.765625 721.132812 133.625 822.269531 113.066406 C 837.59375 113.066406 850.648438 111.789062 861.476562 109.195312 L 861.476562 113.066406 C 888.730469 104.527344 904.777344 100.257812 909.636719 100.257812 L 909.636719 91.28125 L 853.105469 52.625 C 850.09375 52.625 848.609375 53.957031 848.609375 56.550781 L 831.261719 52.625 C 567.320312 107.464844 413.542969 145.171875 369.875 165.710938 Z M 51.859375 283.273438 L 51.859375 287.199219 C 51.859375 330.078125 57.632812 404.195312 69.1875 509.394531 L 65.277344 509.394531 L 73.683594 539.617188 L 69.1875 539.617188 C 124.457031 896.371094 163.628906 1074.792969 186.785156 1074.792969 L 247.816406 1118.410156 L 247.816406 1110.027344 C 230.261719 1047.71875 214.386719 943.171875 200.222656 796.5625 C 197.230469 796.5625 195.742188 795.09375 195.742188 792.101562 L 200.222656 792.101562 C 194.238281 778.253906 183.984375 712.972656 169.441406 596.1875 L 161.019531 561.488281 L 164.960938 561.488281 C 154.117188 511.125 145.539062 441.503906 139.191406 352.671875 C 126.136719 332.167969 97.03125 309.019531 51.859375 283.273438 Z M 839.648438 0.03125 C 851.203125 10.113281 893.382812 36.253906 966.191406 78.367188 C 966.191406 81.359375 976.253906 92.976562 996.402344 113.066406 L 996.402344 130.476562 C 996.402344 150.964844 1002.195312 190.140625 1013.78125 247.972656 L 1009.875 256.980469 L 1040.085938 370.011719 C 1043.113281 396.152344 1046.070312 409.242188 1049.046875 409.242188 C 1044.945312 423.78125 1017.328125 431.007812 966.191406 431.007812 C 937.445312 444.492188 893.96875 456.023438 835.722656 465.757812 C 835.722656 471.722656 831.261719 474.714844 822.269531 474.714844 L 822.269531 478.621094 C 843.574219 490.535156 885.773438 506.59375 948.828125 526.753906 C 948.828125 529.746094 950.332031 531.230469 953.304688 531.230469 C 979.816406 541.292969 1007.261719 558.652344 1035.625 583.324219 C 1067.722656 609.394531 1095.324219 641.292969 1118.496094 679 C 1164.757812 779.015625 1187.914062 831.246094 1187.914062 835.738281 L 1183.988281 857.558594 C 1204.15625 933.351562 1214.21875 989.871094 1214.21875 1027.160156 L 1209.742188 1027.160156 L 1223.195312 1079.199219 C 1220.203125 1104.582031 1218.699219 1126.417969 1218.699219 1144.707031 L 1223.195312 1144.707031 L 1218.699219 1153.128906 L 1218.699219 1171.023438 C 1218.699219 1181.863281 1214.425781 1210.75 1205.816406 1257.8125 L 1209.742188 1257.8125 C 1209.742188 1313.015625 1180.808594 1397.195312 1122.960938 1510.226562 C 1112.894531 1518.058594 1094.027344 1544.21875 1066.425781 1588.617188 C 1062.691406 1588.617188 1045.136719 1604.433594 1013.78125 1636.175781 C 948.445312 1684.707031 904.96875 1709.5 883.335938 1710.625 L 883.335938 1706.128906 C 846.378906 1715.464844 827.507812 1721.238281 826.785156 1723.484375 L 818.378906 1719.007812 C 783.289062 1722.015625 764.421875 1725.023438 761.828125 1727.964844 C 749.859375 1722.015625 739.605469 1719.007812 731.007812 1719.007812 C 728.777344 1719.007812 720.011719 1720.476562 704.6875 1723.484375 C 699.84375 1720.476562 694.070312 1719.007812 687.359375 1719.007812 L 687.359375 1723.484375 L 678.953125 1719.007812 L 635.269531 1719.007812 C 626.691406 1714.167969 604.867188 1708.375 569.761719 1701.648438 C 569.015625 1694.234375 540.085938 1679.640625 482.980469 1658.011719 C 441.542969 1629.277344 413.90625 1614.914062 400.105469 1614.914062 C 319.101562 1550.71875 278.617188 1515.8125 278.617188 1510.226562 C 237.925781 1474.371094 208.785156 1430.925781 191.265625 1379.800781 C 182.308594 1375.339844 170.738281 1344.757812 156.519531 1288.03125 L 161.019531 1279.628906 L 156.519531 1270.691406 C 156.519531 1249.011719 179.679688 1225.863281 225.957031 1201.242188 C 233.824219 1201.242188 242.574219 1196.988281 252.296875 1188.378906 C 221.304688 1147.714844 179.140625 1111.359375 125.738281 1079.199219 C 108.566406 964.664062 91.21875 882.039062 73.683594 831.246094 L 78.164062 822.859375 L 38.957031 613.527344 L 43.4375 613.527344 C 31.847656 569.472656 20.3125 465.1875 8.746094 300.617188 C 5.734375 300.617188 2.742188 293.355469 -0.214844 278.796875 L 4.265625 269.808594 L -0.214844 247.972656 L 4.265625 239.636719 L -0.214844 230.613281 L 17.132812 191.453125 L 182.859375 156.773438 C 197.042969 156.773438 204.132812 153.972656 204.132812 148.371094 C 207.125 148.371094 208.609375 149.648438 208.609375 152.296875 C 349.332031 120.554688 433.519531 100.257812 461.136719 91.28125 C 513.398438 74.097656 612.148438 50.949219 757.332031 21.851562 L 757.332031 26.328125 C 804.734375 16.25 832.160156 7.519531 839.648438 0.03125"/></g><path fill="#FFF" d="M 51.859375 283.273438 L 51.859375 287.199219 C 51.859375 330.078125 57.632812 404.195312 69.1875 509.394531 L 65.277344 509.394531 L 73.683594 539.617188 L 69.1875 539.617188 C 124.457031 896.371094 163.628906 1074.792969 186.785156 1074.792969 L 247.816406 1118.410156 L 247.816406 1110.027344 C 230.261719 1047.71875 214.386719 943.171875 200.222656 796.5625 C 197.230469 796.5625 195.742188 795.09375 195.742188 792.101562 L 200.222656 792.101562 C 194.238281 778.253906 183.984375 712.972656 169.441406 596.1875 L 161.019531 561.488281 L 164.960938 561.488281 C 154.117188 511.125 145.539062 441.503906 139.191406 352.671875 C 126.136719 332.167969 97.03125 309.019531 51.859375 283.273438"/><path fill="#FFF" d="M 369.875 165.710938 L 369.875 161.25 C 315.746094 175.789062 237.351562 193.132812 134.695312 213.289062 L 125.738281 208.796875 C 113.441406 217.769531 91.789062 225.082031 60.800781 230.613281 L 60.800781 235.109375 C 105.972656 273.558594 133.605469 293.90625 143.6875 296.15625 C 144.398438 290.207031 147.234375 287.199219 152.078125 287.199219 L 164.960938 287.199219 L 186.785156 291.660156 L 186.785156 287.199219 L 195.742188 291.660156 C 298.78125 259.933594 371.363281 239.636719 413.542969 230.613281 C 416.535156 225.789062 460.03125 212.71875 544.007812 191.453125 C 628.371094 159.765625 721.132812 133.625 822.269531 113.066406 C 837.59375 113.066406 850.648438 111.789062 861.476562 109.195312 L 861.476562 113.066406 C 888.730469 104.527344 904.777344 100.257812 909.636719 100.257812 L 909.636719 91.28125 L 853.105469 52.625 C 850.09375 52.625 848.609375 53.957031 848.609375 56.550781 L 831.261719 52.625 C 567.320312 107.464844 413.542969 145.171875 369.875 165.710938"/><path fill="#FFF" d="M 887.796875 156.773438 C 884.804688 156.773438 883.335938 155.285156 883.335938 152.296875 C 834.410156 152.296875 699.480469 188.671875 478.515625 261.40625 C 369.515625 296.15625 279.550781 320.773438 208.609375 335.316406 C 191.4375 347.277344 182.859375 354.539062 182.859375 357.132812 C 197.042969 506.042969 209.925781 591.5 221.496094 613.527344 L 221.496094 618.003906 L 217.605469 626.960938 C 226.179688 657.578125 236.246094 718.382812 247.816406 809.425781 L 243.355469 818.398438 C 251.535156 837.054688 260.320312 903.648438 269.660156 1018.207031 C 283.476562 1058.144531 293.542969 1097.300781 299.886719 1135.769531 L 304.351562 1135.769531 C 342.449219 1101.089844 397.703125 1060.582031 470.078125 1014.28125 C 506.292969 979.601562 574.429688 943.171875 674.476562 905.136719 C 732.324219 892.445312 774.140625 897.289062 799.890625 919.675781 C 828.234375 932.746094 853.261719 977.371094 874.914062 1053.457031 C 871.9375 1091.164062 870.433594 1121.574219 870.433594 1144.707031 L 870.433594 1157.605469 C 840.945312 1241.921875 807.535156 1284.109375 770.199219 1284.109375 L 757.332031 1292.527344 L 709.167969 1292.527344 C 662.523438 1283.140625 633.59375 1270.070312 622.386719 1253.28125 C 602.636719 1227.175781 589.542969 1214.121094 583.214844 1214.121094 C 586.191406 1208.519531 587.675781 1204.25 587.675781 1201.242188 C 584.683594 1195.640625 583.214844 1191.371094 583.214844 1188.378906 L 569.761719 1188.378906 C 488.773438 1236.496094 427.914062 1275.671875 387.222656 1305.925781 C 353.257812 1332.03125 331.433594 1345.121094 321.746094 1345.121094 L 321.746094 1349.027344 C 321.746094 1354.957031 326.210938 1357.964844 335.167969 1357.964844 L 335.167969 1388.253906 C 374.355469 1459.519531 410.550781 1511.699219 443.773438 1544.980469 C 488.21875 1599.058594 568.101562 1641.226562 683.398438 1671.429688 L 739.96875 1671.429688 C 746.332031 1671.429688 752.125 1672.761719 757.332031 1675.355469 C 762.191406 1672.761719 767.984375 1671.429688 774.710938 1671.429688 C 777.667969 1671.429688 781.972656 1672.761719 787.558594 1675.355469 C 792.785156 1672.761719 798.59375 1671.429688 804.921875 1671.429688 L 804.921875 1675.355469 C 857.21875 1666.050781 899.367188 1652.980469 931.445312 1636.175781 C 953.132812 1613.027344 974.769531 1597.175781 996.402344 1588.617188 C 996.402344 1584.105469 1016.773438 1562.285156 1057.449219 1523.109375 C 1121.28125 1421.277344 1153.207031 1335.785156 1153.207031 1266.765625 C 1159.171875 1266.765625 1162.164062 1260.769531 1162.164062 1248.855469 L 1157.6875 1248.855469 L 1166.660156 1231.445312 L 1162.164062 1231.445312 C 1165.140625 1225.863281 1166.660156 1221.589844 1166.660156 1218.601562 C 1166.660156 1215.644531 1165.140625 1214.121094 1162.164062 1214.121094 L 1175.050781 1149.203125 L 1170.570312 1149.203125 L 1179.511719 1118.410156 C 1179.511719 1116.542969 1175.222656 1083.175781 1166.660156 1018.207031 L 1170.570312 1009.820312 C 1154.882812 909.460938 1134.546875 841.132812 1109.523438 804.949219 C 1097.953125 785.1875 1083.582031 750.472656 1066.425781 700.816406 L 1013.78125 635.34375 L 957.230469 596.1875 C 901.976562 581.644531 868.753906 574.367188 857.566406 574.367188 L 857.566406 578.792969 L 848.609375 574.367188 L 796.554688 574.367188 C 750.621094 574.367188 709.929688 584.585938 674.476562 605.140625 C 665.535156 605.140625 642.359375 618.210938 605.039062 644.300781 C 582.265625 649.140625 554.644531 679.570312 522.167969 735.515625 C 513.589844 735.515625 506.292969 748.605469 500.34375 774.746094 L 495.863281 774.746094 C 495.863281 763.90625 493.0625 755.15625 487.476562 748.429688 L 487.476562 744.488281 C 478.515625 654.949219 474.003906 588.144531 474.003906 544.144531 C 471.410156 544.144531 470.078125 542.625 470.078125 539.617188 C 585.808594 493.367188 683.054688 461.472656 761.828125 443.941406 C 811.460938 424.492188 885.375 404.195312 983.554688 382.894531 L 992.492188 370.011719 C 974.957031 301.34375 966.191406 259.363281 966.191406 244.0625 L 970.6875 244.0625 L 953.304688 152.296875 L 957.230469 152.296875 C 954.621094 147.4375 953.304688 141.644531 953.304688 134.9375 C 909.636719 145.726562 887.796875 153.039062 887.796875 156.773438"/><path fill="#FFF" d="M 204.132812 1305.925781 L 204.132812 1318.804688 C 207.882812 1318.804688 215.148438 1327.554688 225.957031 1345.121094 L 247.816406 1357.964844 C 247.816406 1354.957031 249.320312 1353.503906 252.296875 1353.503906 C 252.296875 1347.921875 236.246094 1332.03125 204.132812 1305.925781"/><path fill="#FFF" d="M 213.125 1266.765625 L 213.125 1275.117188 C 217.207031 1275.117188 240.34375 1288.1875 282.523438 1314.328125 C 326.210938 1291.179688 379.960938 1257.8125 443.773438 1214.121094 C 525.160156 1167.53125 565.851562 1142.839844 565.851562 1140.246094 L 565.851562 1135.769531 L 491.921875 1096.558594 L 478.515625 1096.558594 C 418.421875 1132.761719 385.007812 1156.117188 378.28125 1166.542969 C 341.324219 1183.347656 312.390625 1203.699219 291.484375 1227.523438 C 250.808594 1238.378906 230.46875 1249.980469 230.46875 1262.308594 L 213.125 1266.765625"/><path fill="#FFF" d="M 256.773438 1405.5625 C 256.773438 1418.960938 275.625 1433.570312 313.308594 1449.25 L 313.308594 1444.773438 C 313.308594 1437.285156 295.773438 1424.199219 260.664062 1405.5625 L 256.773438 1405.5625"/><path fill="#FFF" d="M 321.746094 1488.410156 C 324.707031 1499.957031 333.472656 1505.769531 348.050781 1505.769531 C 343.574219 1494.203125 339.265625 1488.410156 335.167969 1488.410156 L 321.746094 1488.410156"/><path fill="#FFF" d="M 509.316406 618.003906 L 509.316406 639.839844 C 510.042969 645.789062 512.828125 648.777344 517.707031 648.777344 L 526.648438 635.34375 L 526.648438 626.960938 C 522.167969 626.960938 516.390625 623.96875 509.316406 618.003906"/><path fill="#FFF" d="M 513.210938 583.324219 L 556.910156 618.003906 L 561.371094 618.003906 C 561.371094 613.527344 564.175781 607.734375 569.761719 600.664062 C 552.222656 583.097656 537.871094 574.367188 526.648438 574.367188 L 522.167969 574.367188 C 516.21875 575.421875 513.210938 578.429688 513.210938 583.324219"/><path fill="#FFF" d="M 569.761719 553.050781 C 569.761719 557.164062 574.257812 561.488281 583.214844 565.914062 C 583.214844 562.972656 584.683594 561.488281 587.675781 561.488281 C 587.675781 565.566406 591.984375 569.820312 600.5625 574.367188 L 605.039062 574.367188 L 635.269531 570.390625 C 635.269531 565.914062 626.5 558.652344 608.964844 548.574219 L 591.585938 548.574219 L 569.761719 553.050781"/><path fill="#FFF" d="M 644.246094 531.230469 C 646.839844 542.761719 652.632812 548.574219 661.609375 548.574219 C 684.730469 548.574219 702.09375 542.761719 713.664062 531.230469 L 722.640625 535.140625 C 731.960938 529.554688 740.519531 526.753906 748.390625 526.753906 L 748.390625 531.230469 C 751.398438 528.242188 773.1875 525.265625 813.863281 522.277344 C 813.863281 525.265625 815.386719 526.753906 818.378906 526.753906 L 818.378906 522.277344 C 818.378906 515.550781 800.808594 508.289062 765.734375 500.457031 L 765.734375 504.933594 C 757.140625 501.910156 752.867188 499.125 752.867188 496.53125 L 644.246094 531.230469"/><path fill="#FFF" d="M 709.167969 1153.128906 C 709.167969 1159.074219 690.316406 1175.152344 652.632812 1201.242188 L 652.632812 1218.601562 L 709.167969 1244.898438 L 718.144531 1240.417969 C 722.984375 1243.410156 728.777344 1244.898438 735.503906 1244.898438 L 765.734375 1210.199219 L 765.734375 1205.71875 C 745.605469 1181.101562 726.738281 1163.554688 709.167969 1153.128906"/><path fill="#FFF" d="M 739.96875 1083.679688 C 739.96875 1088.207031 736.992188 1101.226562 731.007812 1122.90625 C 737.355469 1122.90625 757.695312 1144.707031 792.039062 1188.378906 C 799.890625 1188.378906 808.660156 1173.824219 818.378906 1144.707031 L 748.390625 1083.679688 L 739.96875 1083.679688"/><path fill="#FFF" d="M 748.390625 1018.207031 C 753.992188 1047.71875 778.621094 1078.285156 822.269531 1110.027344 L 831.261719 1110.027344 L 831.261719 1105.566406 C 831.261719 1086.117188 819.675781 1067.304688 796.554688 1049.050781 C 796.554688 1035.546875 780.46875 1025.292969 748.390625 1018.207031"/></svg>